<svg width="582" height="437" viewBox="0 0 582 437" fill="none" xmlns="http://www.w3.org/2000/svg">
<path d="M339.342 47.2688C330.43 52.5493 327.884 61.6534 326.829 65.4043C326.575 66.3148 323.592 77.4947 328.757 89.148C330.285 92.6076 331.922 96.1764 335.632 97.888C337.778 98.9077 339.706 98.8349 347.272 98.1794C350.8 97.888 354.62 97.5238 358.694 97.0868C361.567 93.4088 366.514 86.0526 367.969 75.7103C368.224 73.7802 371.207 50.7648 358.694 44.6468C350.509 40.6046 340.652 46.4677 339.342 47.2688Z" fill="#EC615B"/>
<path d="M174.782 101.566C179.322 101.566 183.003 97.49 183.003 92.4619C183.003 87.4338 179.322 83.3578 174.782 83.3578C170.242 83.3578 166.561 87.4338 166.561 92.4619C166.561 97.49 170.242 101.566 174.782 101.566Z" fill="#EC615B"/>
<path d="M361.204 247.451C364.579 247.451 367.315 244.81 367.315 241.552C367.315 238.294 364.579 235.652 361.204 235.652C357.829 235.652 355.093 238.294 355.093 241.552C355.093 244.81 357.829 247.451 361.204 247.451Z" fill="#EC615B"/>
<path d="M174.855 211.836C177.366 211.836 179.401 209.798 179.401 207.284C179.401 204.77 177.366 202.732 174.855 202.732C172.343 202.732 170.308 204.77 170.308 207.284C170.308 209.798 172.343 211.836 174.855 211.836Z" fill="#EC615B"/>
<path d="M166.379 98.5435C170.377 98.5435 173.618 95.1359 173.618 90.9324C173.618 86.7289 170.377 83.3213 166.379 83.3213C162.381 83.3213 159.141 86.7289 159.141 90.9324C159.141 95.1359 162.381 98.5435 166.379 98.5435Z" fill="#5222D0"/>
<path d="M359.531 238.129C362.002 238.129 364.005 236.042 364.005 233.467C364.005 230.893 362.002 228.806 359.531 228.806C357.06 228.806 355.056 230.893 355.056 233.467C355.056 236.042 357.06 238.129 359.531 238.129Z" fill="#5222D0"/>
<path d="M419.331 109.578C422.043 109.578 424.242 107.23 424.242 104.334C424.242 101.438 422.043 99.0898 419.331 99.0898C416.619 99.0898 414.42 101.438 414.42 104.334C414.42 107.23 416.619 109.578 419.331 109.578Z" fill="#5222D0"/>
<path d="M312.68 141.989C311.879 140.714 310.57 141.916 310.024 142.79C308.897 144.611 308.169 146.868 309.006 148.944C309.624 150.51 311.152 151.821 312.934 151.566C314.571 151.348 315.808 150 315.771 148.361C315.771 147.924 315.153 147.597 314.826 147.961C312.898 150.401 310.533 153.86 312.461 156.992C313.807 159.141 317.117 159.432 318.427 157.102C318.099 157.065 317.772 157.029 317.445 156.956C317.627 157.976 317.808 158.995 317.954 160.015C318.063 160.707 319.118 160.415 319.009 159.724C318.827 158.704 318.645 157.684 318.499 156.665C318.427 156.191 317.699 156.155 317.517 156.519C316.935 157.538 315.626 157.903 314.571 157.393C313.407 156.81 312.898 155.499 312.898 154.225C312.898 152.112 314.389 150.255 315.626 148.689C315.299 148.544 315.008 148.434 314.68 148.289C314.717 149.672 313.371 150.692 312.025 150.401C311.006 150.182 310.352 149.308 309.988 148.361C309.624 147.378 309.66 146.395 309.951 145.412C309.988 145.339 311.479 142.098 311.697 142.462C312.098 143.117 313.043 142.571 312.68 141.989Z" fill="#EC615B"/>
<path d="M164.16 145.266C164.961 143.081 167.616 144.028 168.453 145.557C168.744 146.067 168.889 146.65 168.962 147.233C169.107 148.325 168.998 148.762 168.053 149.418C167.034 150.437 166.779 150.037 167.325 148.216C167.58 148.107 167.871 147.997 168.125 147.888C168.816 147.706 169.617 147.742 170.308 147.961C172.054 148.544 172.927 150.401 172.672 152.112C172.599 152.549 173.036 152.986 173.472 152.732C175.837 151.384 178.965 152.877 179.511 155.536C179.656 156.228 180.711 155.936 180.566 155.244C179.874 151.894 175.91 150.146 172.927 151.821C173.181 152.04 173.472 152.222 173.727 152.44C174.2 149.236 171.763 146.249 168.38 146.759C167.216 146.941 165.47 147.67 165.324 149.053C165.215 150.182 166.27 151.02 167.325 151.129C170.453 151.421 170.381 146.868 169.362 145.048C167.98 142.571 164.16 141.952 163.069 145.011C162.851 145.63 163.906 145.922 164.16 145.266Z" fill="#EC615B"/>
<path d="M355.675 282.338C358.476 284.196 360.84 286.563 362.732 289.33C363.132 289.913 364.077 289.367 363.677 288.784C361.677 285.871 359.203 283.394 356.257 281.428C355.638 280.991 355.093 281.938 355.675 282.338Z" fill="#5222D0"/>
<path d="M362.768 284.341C363.35 285.033 363.896 285.762 364.478 286.453C364.914 287 365.678 286.235 365.241 285.689C364.659 284.997 364.114 284.269 363.532 283.577C363.095 283.03 362.331 283.831 362.768 284.341Z" fill="#5222D0"/>
<path d="M359.421 274.145C361.931 276.475 364.005 279.134 365.605 282.156C365.933 282.775 366.878 282.229 366.551 281.61C364.914 278.515 362.768 275.747 360.185 273.38C359.676 272.87 358.912 273.671 359.421 274.145Z" fill="#5222D0"/>
<path d="M107.925 315.15C108.725 323.052 110.107 330.845 112.035 338.566C112.217 339.258 113.272 338.966 113.09 338.274C111.198 330.663 109.816 322.943 109.016 315.15C108.943 314.458 107.852 314.458 107.925 315.15Z" fill="#E8E8E8"/>
<path d="M112.253 338.93C119.419 340.787 126.876 340.787 134.042 338.93C134.733 338.748 134.442 337.692 133.751 337.874C126.767 339.695 119.528 339.695 112.544 337.874C111.889 337.692 111.598 338.748 112.253 338.93Z" fill="#E8E8E8"/>
<path d="M134.879 337.837C135.351 330.081 135.97 322.324 136.697 314.567C136.77 313.875 135.679 313.875 135.606 314.567C134.879 322.324 134.26 330.081 133.787 337.837C133.751 338.529 134.842 338.529 134.879 337.837Z" fill="#E8E8E8"/>
<path d="M108.543 315.733C117.6 317.59 126.912 317.517 135.97 315.478C136.661 315.332 136.37 314.276 135.679 314.422C126.84 316.388 117.709 316.497 108.834 314.676C108.143 314.531 107.852 315.587 108.543 315.733Z" fill="#E8E8E8"/>
<path d="M108.434 318.355C108.725 319.848 110.616 319.775 111.78 319.884C114.727 320.139 117.71 320.212 120.656 320.139C123.493 320.066 126.33 319.848 129.168 319.52C131.423 319.229 133.605 318.937 135.606 317.808C136.224 317.481 135.679 316.534 135.06 316.861C131.459 318.864 126.476 318.792 122.438 318.974C120.438 319.046 118.401 319.083 116.4 319.046C115.345 319.01 109.707 319.265 109.489 318.063C109.343 317.371 108.325 317.663 108.434 318.355Z" fill="#E8E8E8"/>
<path d="M110.507 330.991C112.253 334.086 114.472 336.818 117.127 339.185C117.637 339.658 118.437 338.893 117.891 338.42C115.272 336.126 113.126 333.467 111.453 330.445C111.126 329.826 110.18 330.372 110.507 330.991Z" fill="#E8E8E8"/>
<path d="M109.089 322.579C112.799 328.843 117.309 334.596 122.475 339.767C122.984 340.277 123.748 339.476 123.238 339.003C118.146 333.904 113.708 328.223 110.034 322.033C109.671 321.45 108.725 321.996 109.089 322.579Z" fill="#E8E8E8"/>
<path d="M115.163 319.957C119.019 326.84 123.493 333.358 128.549 339.44C128.986 339.986 129.75 339.221 129.313 338.675C124.33 332.666 119.892 326.22 116.109 319.411C115.782 318.791 114.836 319.338 115.163 319.957Z" fill="#E8E8E8"/>
<path d="M122.111 320.212C125.857 325.82 129.64 331.392 133.46 336.963C133.86 337.546 134.806 337 134.406 336.417C130.586 330.845 126.803 325.274 123.057 319.666C122.656 319.083 121.711 319.629 122.111 320.212Z" fill="#E8E8E8"/>
<path d="M127.931 319.884C129.822 322.943 131.859 325.929 133.969 328.842C134.369 329.389 135.315 328.842 134.915 328.296C132.805 325.383 130.768 322.397 128.877 319.338C128.513 318.755 127.567 319.301 127.931 319.884Z" fill="#E8E8E8"/>
<path d="M96.4665 283.103C96.903 285.616 97.3394 288.165 97.8123 290.678C97.9578 291.37 98.067 292.098 98.649 292.535C99.0491 292.863 100.359 292.826 100.613 293.191C100.65 292.972 100.686 292.754 100.686 292.535C100.14 293.081 99.5947 293.628 99.0127 294.137C98.8672 294.283 98.8308 294.502 98.8672 294.684C99.1946 295.667 99.4128 297.124 100.068 297.961C100.395 298.398 100.977 298.325 101.232 298.58C101.45 298.799 101.377 298.653 101.268 299.309C101.195 299.855 101.195 300.438 101.268 301.02C101.377 301.894 101.632 302.732 101.959 303.533C103.851 308.121 107.524 311.836 111.053 315.259C111.562 315.733 112.326 314.968 111.817 314.494C109.561 312.309 107.306 310.052 105.451 307.502C103.632 304.99 101.486 301.603 102.614 298.398C102.687 298.216 102.614 297.961 102.468 297.852C101.777 297.306 101.086 297.524 100.613 296.65C99.7038 295.011 100.213 294.465 101.377 293.336C101.559 293.191 101.595 292.863 101.45 292.681C101.159 292.244 100.941 292.098 100.468 291.952C100.177 291.843 99.7402 291.952 99.4492 291.807C98.8308 291.479 98.8308 290.678 98.7217 290.095C98.2852 287.692 97.8487 285.252 97.4486 282.848C97.3758 282.12 96.321 282.411 96.4665 283.103Z" fill="#E8E8E8"/>
<path d="M97.2667 282.958C111.453 287.692 121.165 300.947 121.456 315.951C121.456 316.643 122.547 316.643 122.547 315.951C122.256 300.474 112.217 286.818 97.5577 281.901C96.903 281.683 96.612 282.739 97.2667 282.958Z" fill="#E8E8E8"/>
<path d="M119.055 301.02C122.584 291.224 127.785 281.756 136.115 275.31C136.661 274.873 136.115 273.926 135.57 274.363C126.985 281.027 121.638 290.641 118 300.729C117.782 301.384 118.837 301.676 119.055 301.02Z" fill="#E8E8E8"/>
<path d="M135.169 275.092C135.424 278.442 135.715 281.792 135.97 285.179C136.042 285.871 137.134 285.871 137.061 285.179C136.806 281.829 136.515 278.478 136.261 275.092C136.224 274.4 135.133 274.4 135.169 275.092Z" fill="#E8E8E8"/>
<path d="M136.443 284.815C135.97 284.924 135.497 285.033 135.06 285.179C134.369 285.361 134.66 286.417 135.351 286.235C135.824 286.126 136.297 286.017 136.734 285.871C137.425 285.689 137.134 284.669 136.443 284.815Z" fill="#E8E8E8"/>
<path d="M134.515 286.162C134.66 286.854 135.242 287.291 135.897 287.364C136.188 287.4 136.443 287.109 136.443 286.818C136.443 286.49 136.188 286.308 135.897 286.271C136.006 286.271 135.897 286.271 135.861 286.271C135.824 286.271 135.751 286.235 135.824 286.271C135.788 286.235 135.751 286.235 135.715 286.199C135.642 286.162 135.788 286.271 135.679 286.162C135.642 286.126 135.642 286.126 135.606 286.089C135.679 286.162 135.606 286.089 135.606 286.053C135.57 286.016 135.57 285.944 135.57 286.017C135.57 285.98 135.533 285.907 135.533 285.871C135.46 285.579 135.133 285.397 134.878 285.507C134.587 285.579 134.442 285.871 134.515 286.162Z" fill="#E8E8E8"/>
<path d="M135.351 286.963C135.388 289.039 135.315 291.078 135.097 293.118C135.024 293.773 135.133 295.303 134.697 295.813C134.66 295.849 134.005 295.958 133.86 296.068C133.314 296.505 134.078 297.269 134.624 296.832C134.806 296.687 135.242 296.832 135.533 296.505C135.97 296.068 135.897 295.048 135.97 294.538C136.297 292.025 136.443 289.476 136.406 286.927C136.443 286.271 135.351 286.271 135.351 286.963Z" fill="#E8E8E8"/>
<path d="M133.423 297.014C134.587 298.398 134.26 300.692 134.151 302.368C134.005 304.298 133.678 306.082 132.732 307.757C131.386 310.234 129.495 312.309 128.513 315.004C128.258 315.66 129.313 315.951 129.568 315.296C130.877 311.763 133.896 309.141 134.806 305.427C135.46 302.768 136.079 298.507 134.187 296.25C133.751 295.74 132.987 296.505 133.423 297.014Z" fill="#E8E8E8"/>
<path d="M124.839 315.514C125.857 305.172 128.586 295.084 132.951 285.689C133.242 285.07 132.296 284.487 132.005 285.143C127.567 294.757 124.766 304.99 123.748 315.55C123.675 316.242 124.766 316.206 124.839 315.514Z" fill="#E8E8E8"/>
<path d="M103.378 289.039C109.743 297.051 114.399 306.264 117.127 316.097C117.309 316.789 118.364 316.497 118.182 315.805C115.381 305.754 110.616 296.432 104.142 288.274C103.705 287.728 102.941 288.493 103.378 289.039Z" fill="#E8E8E8"/>
<path d="M104.069 302.477C107.124 302.295 109.962 303.023 112.544 304.625C113.126 304.99 113.708 304.043 113.09 303.679C110.362 302.003 107.27 301.202 104.069 301.384C103.341 301.421 103.341 302.513 104.069 302.477Z" fill="#E8E8E8"/>
<path d="M110.726 297.597C110.507 295.594 110.762 293.664 111.526 291.77C111.78 291.115 110.726 290.824 110.471 291.479C109.671 293.446 109.416 295.485 109.634 297.597C109.707 298.289 110.798 298.289 110.726 297.597Z" fill="#E8E8E8"/>
<path d="M122.511 291.552C123.711 294.502 125.457 297.633 125.894 300.765C126.003 301.457 127.058 301.166 126.949 300.474C126.476 297.306 124.73 294.174 123.566 291.261C123.311 290.605 122.256 290.896 122.511 291.552Z" fill="#E8E8E8"/>
<path d="M129.204 295.011C130.259 293.81 131.277 292.389 132.623 291.479C133.751 290.714 134.988 290.204 135.861 289.148C136.297 288.602 135.533 287.837 135.097 288.384C134.151 289.513 132.769 289.986 131.641 290.86C130.404 291.807 129.459 293.081 128.44 294.247C127.967 294.793 128.731 295.558 129.204 295.011Z" fill="#E8E8E8"/>
<path d="M129.568 315.15C131.314 314.676 133.096 314.494 134.915 314.604C135.606 314.64 135.606 313.547 134.915 313.511C132.987 313.402 131.132 313.584 129.277 314.094C128.622 314.276 128.877 315.332 129.568 315.15Z" fill="#E8E8E8"/>
<path d="M129.422 315.587C131.459 315.769 133.423 315.514 135.388 314.895C136.042 314.676 135.751 313.62 135.097 313.839C133.242 314.422 131.35 314.64 129.422 314.494C128.731 314.458 128.731 315.55 129.422 315.587Z" fill="#E8E8E8"/>
<path d="M109.016 315.405C109.489 315.405 109.925 315.405 110.398 315.405C111.089 315.405 111.089 314.312 110.398 314.312C109.925 314.312 109.489 314.312 109.016 314.312C108.325 314.312 108.325 315.405 109.016 315.405Z" fill="#E8E8E8"/>
<path d="M135.679 324.218C147.21 324.218 158.777 324.218 170.308 324.218C170.999 324.218 170.999 323.125 170.308 323.125C158.777 323.125 147.21 323.125 135.679 323.125C134.988 323.125 134.988 324.218 135.679 324.218Z" fill="#E8E8E8"/>
<path d="M330.867 317.007C337.742 317.007 344.58 317.007 351.455 317.007C352.146 317.007 352.146 315.915 351.455 315.915C344.58 315.915 337.742 315.915 330.867 315.915C330.176 315.915 330.176 317.007 330.867 317.007Z" fill="#E8E8E8"/>
<path d="M393.286 317.663C422.932 317.663 452.578 317.663 482.223 317.663C490.662 317.663 499.101 317.663 507.54 317.663C508.231 317.663 508.231 316.57 507.54 316.57C477.895 316.57 448.249 316.57 418.603 316.57C410.164 316.57 401.725 316.57 393.286 316.57C392.595 316.57 392.595 317.663 393.286 317.663Z" fill="#E8E8E8"/>
<path d="M349.382 198.107C346.617 203.824 343.635 209.432 340.47 214.931C340.324 215.223 340.434 215.696 340.797 215.732C356.402 218.099 370.37 225.856 383.829 233.686C384.447 234.05 384.993 233.103 384.374 232.739C370.807 224.873 356.766 217.08 341.052 214.676C341.161 214.931 341.27 215.223 341.379 215.477C344.58 209.979 347.527 204.37 350.291 198.653C350.619 198.034 349.709 197.451 349.382 198.107Z" fill="#E8E8E8"/>
<path d="M351.783 217.954C352.874 214.822 353.965 211.654 355.056 208.522C355.529 207.211 355.857 205.754 356.475 204.48C356.621 203.715 357.093 203.132 357.821 202.695C358.257 202.804 358.694 202.914 359.13 203.023C359.785 203.205 360.44 203.351 361.058 203.533C362.55 203.897 364.95 203.897 364.696 205.9C364.514 207.32 363.677 208.85 363.204 210.233C362.113 213.329 361.058 216.424 359.967 219.52C359.749 220.175 360.804 220.466 361.022 219.811C362.441 215.732 363.859 211.617 365.278 207.539C365.605 206.592 366.515 204.989 365.787 203.97C364.987 202.877 362.586 202.804 361.349 202.477C360.149 202.185 358.039 201.093 356.802 201.675C355.748 202.149 355.529 203.97 355.202 204.88C353.711 209.141 352.219 213.438 350.728 217.699C350.51 218.318 351.564 218.609 351.783 217.954Z" fill="#E8E8E8"/>
<path d="M365.823 221.85C368.151 216.934 370.516 211.981 372.844 207.065C374.008 204.589 375.172 202.149 376.372 199.673C376.918 198.544 377.354 197.196 378.045 196.14C378.627 195.23 378.773 195.011 379.791 195.412C380.337 195.63 380.992 196.177 381.465 196.504C382.083 196.941 383.065 197.415 383.502 197.997C384.047 198.689 383.829 199.418 383.502 200.292C383.065 201.457 382.41 202.586 381.865 203.715C380.664 206.191 379.464 208.668 378.191 211.144C375.79 215.842 373.28 220.503 370.698 225.128C370.334 225.747 371.28 226.293 371.643 225.674C374.808 220.066 377.827 214.385 380.664 208.631C382.083 205.791 383.647 202.877 384.847 199.928C385.684 197.779 383.865 196.905 382.265 195.776C380.992 194.902 378.991 192.899 377.609 194.538C376.736 195.558 376.263 197.269 375.681 198.507C374.954 200 374.262 201.493 373.535 203.023C370.625 209.141 367.715 215.259 364.841 221.377C364.587 221.923 365.532 222.506 365.823 221.85Z" fill="#E8E8E8"/>
<path d="M377.9 229.425C381.028 224.509 384.557 219.847 388.449 215.55C388.23 215.587 388.012 215.623 387.794 215.623C389.176 216.57 390.522 217.48 391.904 218.427C391.831 218.172 391.759 217.917 391.722 217.662C388.63 222.506 385.539 227.313 382.447 232.156C382.083 232.739 382.992 233.285 383.393 232.702C386.484 227.859 389.576 223.052 392.668 218.209C392.85 217.954 392.704 217.626 392.486 217.444C391.104 216.497 389.758 215.587 388.376 214.64C388.194 214.494 387.867 214.567 387.721 214.713C383.756 219.119 380.155 223.817 376.991 228.806C376.59 229.498 377.536 230.044 377.9 229.425Z" fill="#E8E8E8"/>
<path d="M421.295 194.793C417.658 193.409 415.366 189.767 416.021 185.871C416.676 181.901 420.568 178.369 424.569 180.736C427.333 182.375 428.752 186.089 427.697 189.112C426.606 192.353 423.041 194.283 419.731 193.773C419.04 193.664 418.749 194.72 419.44 194.829C423.332 195.412 427.443 193.263 428.752 189.403C430.062 185.543 427.952 180.882 424.169 179.316C419.731 177.495 415.693 181.319 414.93 185.579C414.129 190.095 416.785 194.246 420.968 195.849C421.659 196.104 421.95 195.048 421.295 194.793Z" fill="#E8E8E8"/>
<path d="M428.752 194.101C421.514 193.882 424.242 182.265 430.644 182.702C437.046 183.176 434.427 196.249 427.406 193.846C426.752 193.627 426.461 194.684 427.115 194.902C435.227 197.67 438.864 182.885 431.117 181.646C427.334 181.027 423.914 184.596 423.332 188.129C422.75 191.625 425.115 195.048 428.752 195.157C429.443 195.23 429.443 194.137 428.752 194.101Z" fill="#E8E8E8"/>
<path d="M423.332 161.144C422.714 160.488 422.423 159.432 422.896 158.631C423.369 157.866 424.533 157.502 425.26 158.085C425.915 158.595 426.06 159.687 425.442 160.233C424.714 160.889 423.551 160.561 422.859 160.015C422.314 159.578 421.55 160.343 422.096 160.78C423.223 161.654 424.969 162.091 426.169 161.035C427.261 160.051 427.152 158.23 426.06 157.284C424.933 156.3 423.15 156.592 422.205 157.684C421.15 158.922 421.441 160.78 422.532 161.908C423.041 162.418 423.805 161.654 423.332 161.144Z" fill="#E8E8E8"/>
<path d="M317.772 188.565C316.753 182.375 320.355 174.909 327.339 174.982C330.903 175.018 334.359 176.475 337.96 175.965C340.506 175.601 342.689 174.144 344.217 172.142C345.744 170.139 346.617 167.626 346.763 165.113C346.945 161.399 345.526 157.611 346.545 153.933C347.054 152.076 348.145 150.364 350 149.672C351.783 149.053 353.711 149.418 355.566 149.345C358.257 149.235 360.367 148.07 361.713 145.703C363.605 142.389 363.168 138.42 364.478 134.924C366.042 130.699 370.443 127.094 375.099 129.17C375.717 129.461 376.299 128.514 375.645 128.223C369.315 125.383 364.041 131.1 362.804 136.854C362.004 140.605 362.149 146.431 357.675 147.924C354.547 148.981 351.019 147.342 348.145 149.49C345.781 151.238 345.09 154.443 345.126 157.247C345.235 161.362 346.508 165.368 344.689 169.301C343.016 173.016 339.706 175.237 335.596 174.982C331.958 174.764 328.357 173.27 324.683 174.217C318.463 175.783 315.808 183.139 316.79 188.893C316.863 189.512 317.917 189.221 317.772 188.565Z" fill="#E8E8E8"/>
<path d="M363.75 162.6C362.404 159.541 364.259 156.628 367.206 155.645C369.352 154.916 371.716 154.88 373.571 153.423C375.026 152.294 375.499 150.874 375.317 149.053C375.135 147.342 375.135 145.994 376.481 144.829C377.609 143.846 379.1 143.482 380.555 143.409C384.556 143.263 390.049 145.302 392.959 141.406C394.305 139.585 393.905 137.327 394.523 135.288C395.36 132.447 398.088 130.699 400.998 130.845C401.689 130.881 401.689 129.789 400.998 129.753C398.779 129.643 396.633 130.481 395.105 132.083C393.214 134.086 393.468 136.344 392.886 138.857C391.322 145.739 381.756 140.896 377.245 143.045C375.572 143.846 374.226 145.266 374.08 147.16C373.899 149.381 374.917 151.202 372.662 152.731C371.461 153.533 370.079 153.788 368.697 154.115C366.405 154.662 364.15 155.353 362.986 157.575C362.04 159.323 362.04 161.326 362.841 163.11C363.095 163.802 364.005 163.219 363.75 162.6Z" fill="#E8E8E8"/>
<path d="M428.57 114.093C428.425 113.766 428.279 113.402 428.17 113.037C428.643 112.491 429.079 111.945 429.552 111.399C429.698 111.362 430.353 111.799 430.571 111.799C431.116 111.872 431.589 111.726 432.026 111.399C433.372 110.343 432.899 108.667 433.299 107.247C433.954 104.807 436.827 106.482 438.137 104.662C439.446 102.877 438.973 99.0897 442.465 100.109C443.157 100.291 443.448 99.2354 442.756 99.0533C440.756 98.4707 438.937 99.4175 438.21 101.348C437.991 101.894 437.919 102.513 437.7 103.059C437.227 104.334 436.718 104.516 435.336 104.589C434.317 104.662 433.517 104.589 432.826 105.463C432.244 106.227 432.244 107.211 432.135 108.121C432.026 109.469 432.135 110.597 430.134 110.452C429.734 110.415 429.407 110.051 428.97 110.051C426.57 110.015 426.97 112.965 427.552 114.385C427.77 115.04 428.861 114.749 428.57 114.093Z" fill="#E8E8E8"/>
<path d="M435.409 117.116C434.827 116.351 433.845 114.13 435.554 113.547C436.173 113.329 436.973 113.584 437.628 113.584C438.21 113.584 438.719 113.584 439.192 113.183C440.647 112.018 439.592 109.942 440.356 108.485C441.593 106.118 444.066 107.975 445.812 106.737C447.049 105.863 447.376 104.188 447.594 102.804C447.704 102.112 446.649 101.821 446.54 102.513C446.285 104.152 445.994 105.973 443.957 106.155C442.902 106.264 442.102 105.9 441.12 106.373C439.519 107.138 439.01 108.558 438.974 110.197C438.937 111.581 439.265 112.273 436.937 112.382C436.646 112.382 436.355 112.309 436.064 112.309C435.227 112.382 434.499 112.819 434.027 113.511C433.008 114.967 433.59 116.643 434.609 117.917C435.081 118.463 435.845 117.662 435.409 117.116Z" fill="#E8E8E8"/>
<path d="M126.148 136.854C129.168 133.212 133.46 130.226 138.407 130.736C143.79 131.282 146.446 135.579 146.955 140.605C147.828 148.944 145.791 158.922 151.429 166.024C153.648 168.828 156.958 170.321 160.523 169.447C164.815 168.427 168.162 165.04 171.981 163.037C176.491 160.67 182.712 159.396 186.786 163.365C189.768 166.278 190.423 170.721 191.405 174.581C192.315 178.077 193.879 181.938 197.007 184.013C198.898 185.252 200.972 185.361 203.154 185.215C205.591 185.033 210.575 184.887 210.066 188.711C209.993 189.403 211.084 189.403 211.157 188.711C211.339 187.218 210.648 186.016 209.447 185.142C207.556 183.758 205.373 183.977 203.154 184.123C200.644 184.305 198.498 184.086 196.57 182.302C194.824 180.699 193.77 178.442 193.006 176.22C191.733 172.396 191.369 168.209 189.186 164.713C187.04 161.253 183.33 159.578 179.329 159.723C174.273 159.906 170.017 162.819 165.979 165.514C164.051 166.788 161.978 168.136 159.613 168.536C156.776 169.01 154.266 167.772 152.448 165.659C149.028 161.654 148.483 155.936 148.301 150.911C148.119 146.213 148.737 141.115 147.173 136.562C145.755 132.411 142.153 129.825 137.825 129.607C132.805 129.352 128.404 132.375 125.312 136.089C124.912 136.635 125.676 137.4 126.148 136.854Z" fill="#E8E8E8"/>
<path d="M107.779 193.045C113.454 202.513 118.51 212.309 122.984 222.397C123.275 223.052 124.221 222.469 123.93 221.85C119.455 211.763 114.363 201.967 108.725 192.498C108.361 191.879 107.415 192.426 107.779 193.045Z" fill="#E8E8E8"/>
<path d="M108.47 192.608C117.309 187.109 126.403 181.974 135.751 177.313C136.37 176.985 135.824 176.038 135.206 176.366C125.894 181.027 116.8 186.162 107.925 191.661C107.306 192.062 107.852 193.008 108.47 192.608Z" fill="#E8E8E8"/>
<path d="M135.097 176.839C139.716 186.563 144.591 196.14 149.756 205.572C150.083 206.191 151.029 205.645 150.702 205.026C145.536 195.594 140.626 186.016 136.042 176.293C135.715 175.638 134.806 176.184 135.097 176.839Z" fill="#E8E8E8"/>
<path d="M124.221 222.615C132.914 217.371 141.499 211.981 150.01 206.446C150.592 206.082 150.047 205.135 149.465 205.499C140.953 211.035 132.369 216.424 123.675 221.668C123.093 222.032 123.639 222.979 124.221 222.615Z" fill="#E8E8E8"/>
<path d="M123.529 189.403C123.311 196.395 123.711 203.351 124.73 210.27C124.839 210.962 125.894 210.67 125.785 209.978C124.766 203.169 124.402 196.286 124.621 189.403C124.657 188.711 123.566 188.711 123.529 189.403Z" fill="#E8E8E8"/>
<path d="M123.566 189.039C128.622 193.008 133.678 196.905 138.807 200.765C139.353 201.202 139.898 200.255 139.353 199.818C134.296 196.031 129.277 192.171 124.33 188.274C123.784 187.837 123.02 188.602 123.566 189.039Z" fill="#E8E8E8"/>
<path d="M125.857 210.488C130.041 206.737 135.497 204.735 139.462 200.692C139.971 200.182 139.171 199.418 138.698 199.928C134.733 203.933 129.313 205.973 125.094 209.724C124.548 210.161 125.348 210.925 125.857 210.488Z" fill="#E8E8E8"/>
<path d="M109.234 198.762C110.398 198.179 111.562 197.633 112.726 197.051C113.344 196.759 112.799 195.812 112.18 196.104C111.016 196.686 109.852 197.233 108.688 197.815C108.07 198.143 108.616 199.053 109.234 198.762Z" fill="#E8E8E8"/>
<path d="M112.981 204.953C113.963 204.297 115.018 203.751 116.109 203.278C116.764 203.023 116.473 201.967 115.818 202.222C114.618 202.732 113.49 203.314 112.399 204.006C111.853 204.407 112.399 205.354 112.981 204.953Z" fill="#E8E8E8"/>
<path d="M117.091 212.091C118.11 211.581 119.128 211.071 120.147 210.598C120.765 210.27 120.219 209.359 119.601 209.651C118.582 210.161 117.564 210.67 116.545 211.144C115.927 211.435 116.473 212.382 117.091 212.091Z" fill="#E8E8E8"/>
<path d="M119.201 219.228C120.328 218.245 121.492 217.408 122.802 216.679C123.42 216.315 122.875 215.405 122.256 215.732C120.91 216.497 119.637 217.408 118.437 218.464C117.891 218.937 118.655 219.702 119.201 219.228Z" fill="#E8E8E8"/>
<path d="M137.17 184.013C138.007 183.431 138.88 183.03 139.862 182.775C140.553 182.593 140.262 181.574 139.571 181.719C138.516 181.974 137.498 182.411 136.588 183.067C136.043 183.467 136.588 184.414 137.17 184.013Z" fill="#E8E8E8"/>
<path d="M140.407 190.241C141.571 189.512 142.735 188.784 143.863 188.019C144.445 187.655 143.899 186.708 143.317 187.072C142.153 187.801 140.989 188.529 139.862 189.294C139.243 189.694 139.789 190.641 140.407 190.241Z" fill="#E8E8E8"/>
<path d="M144.118 197.706C145.354 197.16 146.628 196.614 147.864 196.067C148.519 195.776 147.937 194.829 147.319 195.121C146.082 195.667 144.809 196.213 143.572 196.759C142.917 197.051 143.499 197.997 144.118 197.706Z" fill="#E8E8E8"/>
<path d="M146.773 202.586C147.755 201.639 148.847 200.838 150.047 200.146C150.665 199.818 150.12 198.871 149.501 199.199C148.228 199.928 147.064 200.765 146.009 201.785C145.5 202.295 146.264 203.059 146.773 202.586Z" fill="#E8E8E8"/>
<path d="M127.312 217.808C128.222 219.156 128.986 220.576 129.568 222.069C129.822 222.724 130.877 222.433 130.623 221.778C130.004 220.175 129.24 218.646 128.258 217.225C127.858 216.679 126.912 217.225 127.312 217.808Z" fill="#E8E8E8"/>
<path d="M132.878 214.786C133.569 216.024 134.224 217.225 134.915 218.464C135.242 219.083 136.188 218.536 135.861 217.917C135.169 216.679 134.515 215.477 133.824 214.239C133.496 213.62 132.55 214.166 132.878 214.786Z" fill="#E8E8E8"/>
<path d="M139.316 210.161C140.044 211.472 140.771 212.783 141.499 214.094C141.826 214.713 142.772 214.166 142.444 213.547C141.717 212.236 140.989 210.925 140.262 209.614C139.935 208.995 138.989 209.542 139.316 210.161Z" fill="#E8E8E8"/>
<path d="M145.1 206.701C145.682 208.085 146.264 209.469 146.882 210.816C147.173 211.472 148.083 210.889 147.828 210.27C147.246 208.886 146.664 207.502 146.046 206.155C145.755 205.536 144.809 206.082 145.1 206.701Z" fill="#E8E8E8"/>
<path d="M112.108 187C112.799 188.129 113.454 189.257 114.145 190.35C114.508 190.969 115.454 190.386 115.09 189.804C114.399 188.675 113.745 187.546 113.053 186.453C112.69 185.871 111.744 186.417 112.108 187Z" fill="#E8E8E8"/>
<path d="M118.364 183.358C119.019 184.815 119.674 186.271 120.328 187.728C120.619 188.383 121.565 187.801 121.274 187.182C120.619 185.725 119.965 184.268 119.31 182.812C118.983 182.156 118.073 182.702 118.364 183.358Z" fill="#E8E8E8"/>
<path d="M124.002 179.862C124.985 181.173 125.748 182.593 126.258 184.123C126.476 184.778 127.531 184.487 127.313 183.831C126.767 182.193 126.003 180.663 124.948 179.316C124.548 178.769 123.602 179.279 124.002 179.862Z" fill="#E8E8E8"/>
<path d="M130.077 177.058C130.841 178.223 131.568 179.352 132.332 180.517C132.696 181.1 133.642 180.554 133.278 179.971C132.514 178.806 131.787 177.677 131.023 176.512C130.623 175.929 129.677 176.475 130.077 177.058Z" fill="#E8E8E8"/>
<path d="M186.64 104.844C183.112 103.751 182.93 100 184.603 97.1961C186.24 94.4648 189.405 93.7365 191.878 95.9943C193.915 97.888 194.097 101.129 192.205 103.205C190.314 105.317 187.222 105.281 185.04 103.678C184.494 103.241 183.948 104.188 184.494 104.625C187.258 106.664 191.296 106.337 193.369 103.46C195.516 100.546 194.752 96.4678 191.733 94.5013C184.458 89.8035 178.201 103.351 186.349 105.9C187.04 106.118 187.331 105.062 186.64 104.844Z" fill="#E8E8E8"/>
<path d="M192.496 105.79C189.768 106.628 189.114 103.35 190.314 101.602C191.296 100.182 193.224 99.3447 194.97 99.8181C196.643 100.255 197.844 101.967 197.407 103.678C196.861 105.827 194.606 106.592 192.606 106.264C191.914 106.155 191.623 107.211 192.315 107.32C195.006 107.793 197.916 106.628 198.498 103.715C199.008 101.202 197.043 98.9077 194.606 98.6163C191.914 98.2886 188.968 100.255 188.604 103.023C188.277 105.426 190.459 107.575 192.86 106.81C193.479 106.628 193.188 105.572 192.496 105.79Z" fill="#E8E8E8"/>
<path d="M169.289 129.498C168.416 131.282 169.653 133.066 171.472 133.54C172.854 133.904 174.309 133.576 175.728 133.649C177.255 133.722 178.783 134.086 180.165 134.705C183.221 136.089 185.185 138.602 185.294 141.989C185.403 144.829 184.567 147.779 185.803 150.474C188.422 156.155 195.625 151.821 199.335 155.499C202.427 158.595 201.154 164.239 205.3 166.606C205.919 166.97 206.464 166.024 205.846 165.659C202.136 163.547 203.009 158.048 200.39 154.989C199.008 153.387 197.007 152.95 194.97 152.804C192.496 152.659 189.295 153.168 187.477 151.056C185.367 148.58 186.495 144.865 186.385 141.952C186.313 139.658 185.549 137.582 183.948 135.943C182.53 134.523 180.675 133.54 178.747 133.03C177.765 132.775 176.746 132.593 175.728 132.557C174.418 132.484 168.744 133.139 170.271 130.044C170.562 129.425 169.617 128.879 169.289 129.498Z" fill="#E8E8E8"/>
<path d="M84.2445 326.075C90.8283 326.075 97.3758 326.075 103.96 326.075C104.651 326.075 104.651 324.982 103.96 324.982C97.3758 324.982 90.8283 324.982 84.2445 324.982C83.517 324.982 83.517 326.075 84.2445 326.075Z" fill="#E8E8E8"/>
<path d="M94.866 350.765C107.524 350.765 120.147 350.765 132.805 350.765C133.496 350.765 133.496 349.673 132.805 349.673C120.147 349.673 107.524 349.673 94.866 349.673C94.1385 349.673 94.1385 350.765 94.866 350.765Z" fill="#E8E8E8"/>
<path d="M131.277 343.919C143.026 343.919 154.812 343.919 166.561 343.919C167.252 343.919 167.252 342.827 166.561 342.827C154.812 342.827 143.026 342.827 131.277 342.827C130.55 342.827 130.55 343.919 131.277 343.919Z" fill="#E8E8E8"/>
<path d="M326.938 342.025C332.868 340.569 338.833 340.423 344.871 341.37C347.418 341.77 350 342.171 352.583 341.953C355.093 341.734 357.53 340.969 359.967 340.314C362.731 339.549 365.496 338.966 368.406 339.185C371.389 339.403 374.262 340.241 377.172 340.896C379.682 341.479 382.229 341.88 384.811 341.843C387.539 341.77 390.231 341.297 392.886 340.896C400.161 339.731 407 340.459 414.202 341.661C414.893 341.77 415.184 340.714 414.493 340.605C408.673 339.658 402.817 338.675 396.888 339.258C390.704 339.877 384.957 341.406 378.7 340.132C373.462 339.076 368.479 337.437 363.095 338.457C360.222 339.003 357.494 340.022 354.62 340.569C351.419 341.188 348.327 340.824 345.126 340.314C338.906 339.367 332.759 339.44 326.611 340.969C325.993 341.151 326.284 342.207 326.938 342.025Z" fill="#E8E8E8"/>
<path d="M382.81 330.955C394.232 330.336 405.654 329.717 417.076 329.134C422.714 328.843 428.17 328.952 433.772 329.717C436.282 330.044 438.682 330.117 441.192 329.826C443.993 329.498 446.903 329.061 449.522 330.408C450.141 330.736 450.686 329.789 450.068 329.462C445.63 327.204 440.501 329.316 435.736 328.879C432.899 328.624 430.134 328.078 427.297 327.932C424.351 327.786 421.404 327.859 418.458 328.005C406.563 328.551 394.669 329.28 382.774 329.899C382.119 329.899 382.119 330.991 382.81 330.955Z" fill="#E8E8E8"/>
<path d="M159.141 362.237C164.524 362.747 169.944 363.256 175.327 362.637C177.837 362.346 180.238 361.8 182.675 361.071C185.84 360.124 188.677 359.87 191.951 360.452C194.461 360.889 196.934 361.508 199.444 361.727C202.099 361.945 204.755 361.8 207.41 361.545C212.976 360.998 218.541 360.052 224.07 361.29C224.761 361.435 225.052 360.379 224.361 360.234C219.05 359.068 213.74 359.833 208.392 360.379C205.737 360.634 203.082 360.889 200.426 360.744C197.407 360.598 194.497 359.797 191.551 359.323C189.077 358.923 186.713 358.923 184.276 359.505C181.657 360.161 179.183 361.035 176.491 361.435C170.744 362.273 164.888 361.69 159.141 361.181C158.413 361.071 158.449 362.164 159.141 362.237Z" fill="#E8E8E8"/>
<path d="M216.686 68.3905C215.267 67.4073 213.339 65.8413 213.921 63.8748C214.54 61.8355 216.068 62.8188 217.486 62.3453C219.378 61.7263 219.268 59.432 218.723 57.9389C218.177 56.4823 217.013 52.9498 220.032 54.1516C220.724 54.4429 221.233 54.9163 222.033 54.6614C222.761 54.4429 223.124 53.7874 223.306 53.0955C223.452 52.4764 223.343 51.8209 223.306 51.1654C223.233 50.7284 223.197 50.255 223.197 49.818C223.052 48.7619 223.706 48.3249 225.089 48.507C225.125 49.1989 226.216 49.1989 226.18 48.507C226.107 47.4873 225.343 46.759 224.252 46.7954C222.979 46.8318 222.288 48.07 222.142 49.2353C222.033 50.0365 222.688 51.8938 222.324 52.5493C221.888 52.8406 221.451 53.1683 220.978 53.4597C220.796 53.3504 220.614 53.2412 220.433 53.1319C220.105 53.0227 219.851 52.8042 219.523 52.7313C218.396 52.4764 217.486 53.1683 217.086 54.188C216.395 55.936 217.632 57.3927 217.995 59.0314C218.468 61.2893 216.759 61.0343 215.267 61.2893C214.612 61.3985 214.067 61.7263 213.63 62.1997C211.339 64.8581 213.994 67.8078 216.177 69.3373C216.722 69.7379 217.268 68.7911 216.686 68.3905Z" fill="#E8E8E8"/>
<path d="M223.852 67.3708C222.651 65.987 221.742 64.0933 224.07 63.365C224.652 63.1829 225.307 63.2558 225.852 62.8916C227.053 62.054 226.543 60.9251 226.325 59.7598C226.216 59.1043 225.961 58.2303 226.362 57.5748C226.653 57.1013 227.707 56.9193 228.253 56.81C229.017 56.6279 229.817 56.5187 230.472 56.0817C231.454 55.3898 231.818 54.1516 231.163 53.0955C230.799 52.5128 229.854 53.0591 230.217 53.6418C231.309 55.3898 226.216 55.8632 225.343 57.1378C224.325 58.6308 226.471 61.2528 224.688 62.1997C223.997 62.5638 223.124 62.3089 222.469 62.7823C221.997 63.1101 221.669 63.6199 221.524 64.1662C221.124 65.7321 222.178 67.0795 223.124 68.172C223.561 68.6818 224.325 67.9171 223.852 67.3708Z" fill="#E8E8E8"/>
<path d="M180.893 58.7401C179.947 58.0846 179.838 56.9192 180.129 55.8996C180.311 55.2077 181.184 53.314 182.02 53.2412C183.403 53.0955 184.094 54.8435 184.458 55.8632C184.785 56.8464 184.894 57.8297 184.93 58.8493C184.93 59.5413 186.022 59.5413 186.022 58.8493C185.985 56.81 184.639 50.5463 181.293 52.3672C180.02 53.0591 179.074 55.062 178.929 56.4458C178.783 57.7568 179.292 58.9222 180.347 59.6869C180.893 60.0875 181.438 59.1407 180.893 58.7401Z" fill="#E8E8E8"/>
<path d="M180.456 59.3227C179.147 59.6505 177.837 59.9783 176.491 60.306C175.728 60.4881 174.418 60.5609 173.8 61.1436C172.745 62.1268 173.036 65.1494 173.036 66.424C173.036 66.7882 173.4 67.0431 173.727 66.9338C173.909 66.8974 174.091 66.8246 174.309 66.7882C175.255 66.2783 175.728 66.6061 175.764 67.6986C176.491 68.4269 176.491 68.8639 175.764 68.9368C175.327 69.1188 174.891 69.1917 174.418 69.1917C174.127 69.2281 173.872 69.4102 173.872 69.7379C173.945 72.0686 174.127 74.3628 174.382 76.6935C174.454 77.3854 175.546 77.3854 175.473 76.6935C175.218 74.3628 175.036 72.0686 174.964 69.7379C174.782 69.92 174.6 70.1021 174.418 70.2842C175.946 70.1021 178.383 69.483 178.056 67.4073C177.692 65.1858 175 65.4407 173.472 65.8777C173.691 66.0598 173.945 66.2419 174.163 66.3876C174.163 65.55 174.163 64.7488 174.236 63.9113C174.345 62.6002 174.273 62.1268 175.473 61.6534C177.11 60.9979 179.038 60.7794 180.747 60.3424C181.438 60.2332 181.147 59.1771 180.456 59.3227Z" fill="#E8E8E8"/>
<path d="M185.694 59.6505C187.222 59.5777 188.786 59.5777 190.314 59.7598C191.769 59.9418 191.696 60.1603 191.914 61.4349C192.06 62.2361 192.096 63.0737 192.169 63.8748C192.46 67.0067 192.678 70.1385 192.86 73.2703C192.897 73.9622 193.988 73.9622 193.952 73.2703C193.733 69.0096 193.588 64.6396 192.897 60.4153C192.715 59.3592 192.533 59.0314 191.442 58.8493C189.55 58.4852 187.586 58.4852 185.694 58.5944C185.003 58.5944 185.003 59.6869 185.694 59.6505Z" fill="#E8E8E8"/>
<path d="M175.182 77.4582C177.328 77.0941 179.474 76.7299 181.584 76.3657C184.021 75.9652 186.349 76.1472 188.786 75.9652C189.914 75.8559 195.261 75.3097 193.297 73.0882C192.824 72.5784 192.06 73.3432 192.533 73.853C192.824 74.1807 187.877 74.9091 187.768 74.9091C186.24 74.9455 184.712 74.8727 183.184 75.0547C180.42 75.3825 177.655 75.9652 174.891 76.4386C174.2 76.5114 174.491 77.5675 175.182 77.4582Z" fill="#E8E8E8"/>
<path d="M368.406 287.182C368.297 291.006 368.188 294.829 368.079 298.69C372.916 299.017 377.718 299.309 382.556 299.636C382.556 295.703 382.556 291.77 382.556 287.837C377.827 287.619 373.135 287.4 368.406 287.182Z" fill="white" stroke="#161616" stroke-width="2" stroke-miterlimit="10"/>
<path d="M374.699 329.68C375.354 333.904 375.645 337.4 375.79 339.913C376.263 348.253 375.899 350.183 375.172 351.712C373.389 355.463 370.152 357.029 370.443 357.539C370.661 357.867 372.262 357.502 379.391 353.752C378.955 345.449 378.555 337.182 378.118 328.879C376.99 329.17 375.863 329.425 374.699 329.68Z" fill="white" stroke="#161616" stroke-width="2" stroke-miterlimit="10"/>
<path d="M365.278 302.914C371.461 302.95 377.645 303.023 383.829 303.06C383.138 311.363 382.483 319.629 381.792 327.932C376.408 327.495 370.989 327.094 365.605 326.657C365.46 318.755 365.35 310.853 365.278 302.914Z" fill="white" stroke="#161616" stroke-width="2" stroke-miterlimit="10"/>
<path d="M367.788 329.389C369.752 334.159 370.407 338.274 370.625 341.042C370.952 345.121 371.171 348.253 369.206 350.328C368.479 351.129 367.278 351.894 364.95 353.46C362.877 354.844 361.895 355.354 361.968 355.499C362.077 355.718 364.077 355.281 372.807 352.186C373.389 349.236 373.862 345.449 373.753 341.006C373.608 336.272 372.844 332.229 372.007 329.207C370.625 329.279 369.206 329.316 367.788 329.389Z" fill="white" stroke="#161616" stroke-width="2" stroke-miterlimit="10"/>
<path d="M370.952 357.867C372.043 356.956 373.062 355.973 374.044 354.917C375.172 353.679 376.845 351.785 378.591 353.424C378.627 353.132 378.664 352.841 378.7 352.55C376.117 353.824 373.571 355.099 370.989 356.337C370.479 356.592 370.734 357.357 371.28 357.357C373.717 357.393 375.244 353.132 377.754 353.934C378.409 354.152 378.7 353.096 378.045 352.878C376.954 352.55 376.117 352.841 375.208 353.497C374.153 354.261 372.662 356.264 371.316 356.264C371.425 356.592 371.498 356.956 371.607 357.284C374.19 356.009 376.736 354.735 379.319 353.497C379.646 353.351 379.682 352.878 379.428 352.623C378.445 351.712 376.699 351.384 375.463 351.967C374.553 352.368 373.971 353.424 373.317 354.116C372.335 355.172 371.316 356.119 370.225 357.065C369.643 357.539 370.407 358.34 370.952 357.867Z" fill="#161616"/>
<path d="M375.426 352.186C376.518 352.222 377.572 352.441 378.591 352.878C379.209 353.169 379.791 352.222 379.137 351.931C377.936 351.384 376.736 351.093 375.426 351.057C374.735 351.093 374.735 352.186 375.426 352.186Z" fill="#161616"/>
<path d="M369.461 350.911C370.297 351.129 371.025 351.566 371.607 352.222C372.08 352.732 372.844 351.967 372.371 351.457C371.643 350.692 370.734 350.146 369.715 349.891C369.097 349.673 368.806 350.729 369.461 350.911Z" fill="#161616"/>
<path d="M363.568 355.317C364.696 354.48 365.86 353.715 367.06 352.987C367.606 352.659 368.188 352.222 368.77 352.04C369.679 351.712 370.225 351.931 371.061 352.295C371.061 351.967 371.061 351.676 371.061 351.348C369.897 351.858 368.588 351.821 367.388 352.331C366.224 352.805 365.132 353.97 363.932 354.188C364.077 354.516 364.223 354.844 364.368 355.172C366.515 354.116 368.915 353.934 371.061 352.878C371.68 352.55 371.134 351.639 370.516 351.931C368.37 352.987 365.969 353.169 363.823 354.225C363.241 354.516 363.677 355.317 364.259 355.208C365.569 354.99 366.624 353.788 367.86 353.315C369.097 352.841 370.443 352.805 371.643 352.295C372.007 352.149 372.007 351.494 371.643 351.348C370.261 350.729 369.643 350.365 368.261 351.093C366.442 352.04 364.732 353.169 363.095 354.371C362.441 354.771 362.986 355.718 363.568 355.317Z" fill="#161616"/>
<path d="M369.788 334.96C370.698 334.633 371.607 334.669 372.444 335.106C373.062 335.434 373.608 334.487 372.989 334.159C371.898 333.577 370.661 333.467 369.497 333.904C368.842 334.159 369.133 335.215 369.788 334.96Z" fill="#161616"/>
<path d="M370.698 338.602C371.461 338.529 372.189 338.711 372.771 339.221C373.317 339.658 374.08 338.894 373.535 338.456C372.735 337.801 371.752 337.437 370.698 337.51C370.006 337.546 370.006 338.639 370.698 338.602Z" fill="#161616"/>
<path d="M371.098 343.154C371.789 343.081 372.444 343.336 372.844 343.919C373.207 344.502 374.153 343.955 373.789 343.373C373.244 342.462 372.189 341.916 371.134 342.062C370.843 342.098 370.588 342.28 370.588 342.608C370.552 342.863 370.807 343.191 371.098 343.154Z" fill="#161616"/>
<path d="M375.79 334.706C376.445 334.341 377.281 334.378 377.9 334.888C378.445 335.325 379.209 334.56 378.664 334.123C377.682 333.322 376.372 333.14 375.244 333.759C374.626 334.123 375.172 335.07 375.79 334.706Z" fill="#161616"/>
<path d="M376.409 341.588C376.991 341.333 377.645 341.443 378.118 341.88C378.627 342.353 379.428 341.588 378.882 341.115C378.045 340.35 376.881 340.168 375.826 340.678C375.208 340.933 375.79 341.88 376.409 341.588Z" fill="#161616"/>
<path d="M376.554 347.415C377.136 347.051 377.864 347.051 378.409 347.488C378.955 347.925 379.719 347.16 379.173 346.723C378.264 345.958 376.99 345.849 376.008 346.505C375.426 346.869 375.972 347.816 376.554 347.415Z" fill="#161616"/>
<path d="M384.702 303.023C383.974 311.399 383.247 319.775 382.519 328.151" stroke="#161616" stroke-width="6" stroke-miterlimit="10"/>
<path d="M365.496 326.985C371.571 327.422 377.645 327.823 383.72 328.26" stroke="#161616" stroke-width="6" stroke-miterlimit="10"/>
<path d="M383.756 287.51C383.611 291.661 383.429 295.776 383.283 299.928" stroke="#161616" stroke-width="6" stroke-miterlimit="10"/>
<path d="M384.52 307.939C387.903 307.32 391.504 309.979 391.759 313.475C392.122 317.845 387.139 318.609 383.865 318.136C383.174 318.027 382.883 319.083 383.574 319.192C387.576 319.775 393.214 318.646 392.85 313.475C392.559 309.214 388.303 306.118 384.229 306.883C383.538 306.992 383.829 308.049 384.52 307.939Z" fill="#161616"/>
<path d="M383.72 320.066C385.138 320.357 386.266 321.377 386.666 322.761C386.848 323.453 387.903 323.161 387.721 322.47C387.248 320.722 385.83 319.338 384.047 319.01C383.32 318.901 383.029 319.92 383.72 320.066Z" fill="#161616"/>
<path d="M383.174 319.702C384.047 320.977 384.447 322.397 384.302 323.963C384.265 324.655 385.357 324.655 385.393 323.963C385.502 322.251 385.066 320.576 384.084 319.156C383.72 318.573 382.774 319.119 383.174 319.702Z" fill="#161616"/>
<path d="M365.241 307.43C362.841 305.9 358.439 310.306 357.894 312.455C356.802 316.825 362.404 316.315 364.732 317.772C365.314 318.136 365.86 317.189 365.278 316.825C363.604 315.769 361.131 316.169 359.676 314.859C357.894 313.256 359.53 311.326 360.767 310.197C361.422 309.615 363.641 307.684 364.696 308.34C365.278 308.777 365.86 307.83 365.241 307.43Z" fill="#161616"/>
<path d="M364.659 317.262C363.714 317.626 362.841 318.172 362.113 318.937C361.567 319.52 360.876 320.43 361.422 321.231C361.822 321.814 362.768 321.268 362.368 320.685C362.113 320.321 363.059 319.52 363.313 319.301C363.786 318.864 364.332 318.537 364.95 318.318C365.605 318.063 365.35 317.007 364.659 317.262Z" fill="#161616"/>
<path d="M364.223 318.027C363.532 319.119 363.314 320.357 363.568 321.596C363.714 322.287 364.769 321.996 364.623 321.304C364.405 320.321 364.623 319.411 365.169 318.573C365.569 317.99 364.623 317.444 364.223 318.027Z" fill="#161616"/>
<path d="M367.678 306.738C367.497 309.396 367.533 312.091 367.715 314.749C367.788 315.441 368.879 315.441 368.806 314.749C368.588 312.091 368.588 309.396 368.77 306.738C368.842 306.046 367.751 306.046 367.678 306.738Z" fill="#161616"/>
<path d="M368.479 307.029C372.335 307.247 376.154 307.393 380.01 307.466C379.828 307.284 379.646 307.102 379.464 306.92C379.355 309.651 379.246 312.419 379.1 315.15C379.064 315.842 380.155 315.842 380.192 315.15C380.301 312.419 380.41 309.651 380.555 306.92C380.555 306.628 380.301 306.373 380.01 306.373C376.154 306.301 372.335 306.155 368.479 305.936C367.788 305.9 367.788 306.992 368.479 307.029Z" fill="#161616"/>
<path d="M368.042 315.223C369.643 315.66 371.425 315.55 373.026 315.66C374.99 315.769 376.99 315.915 378.955 316.024C379.646 316.06 379.646 314.968 378.955 314.931C377.209 314.822 375.463 314.713 373.717 314.604C371.971 314.494 370.006 314.604 368.297 314.167C367.678 313.984 367.387 315.041 368.042 315.223Z" fill="#161616"/>
<path d="M369.279 320.867C369.934 322.288 371.352 321.049 372.444 321.559C372.953 321.778 372.844 322.105 373.535 322.142C374.335 322.178 376.299 320.576 376.699 322.069C376.809 322.47 377.318 322.579 377.609 322.324C377.973 322.215 378.373 322.105 378.736 322.033C379.173 322.579 379.973 321.778 379.5 321.268C378.664 320.285 377.609 320.831 376.809 321.559C377.1 321.632 377.427 321.705 377.718 321.814C377.391 320.54 376.045 319.702 374.772 320.285C374.153 320.576 374.081 321.122 373.135 320.758C372.953 320.685 372.88 320.394 372.698 320.321C372.298 320.175 370.188 320.394 370.188 320.357C369.934 319.665 368.988 320.212 369.279 320.867Z" fill="#161616"/>
<path d="M371.207 292.207C371.28 291.807 371.752 291.697 372.08 291.843C372.553 292.025 372.807 292.571 373.026 292.972C373.317 293.591 374.262 293.045 373.971 292.426C373.571 291.625 372.953 290.787 371.971 290.678C371.17 290.605 370.334 291.078 370.188 291.88C370.006 292.608 371.061 292.899 371.207 292.207Z" fill="#161616"/>
<path d="M377.9 292.717C377.973 292.353 378.3 292.134 378.664 292.28C379.1 292.426 379.282 292.972 379.355 293.373C379.464 294.065 380.519 293.773 380.41 293.081C380.264 292.207 379.682 291.297 378.737 291.151C377.9 291.042 376.991 291.552 376.845 292.426C376.736 293.118 377.791 293.409 377.9 292.717Z" fill="#161616"/>
<path d="M371.752 294.502C372.989 296.687 375.936 297.014 377.536 295.048C377.973 294.502 377.209 293.737 376.772 294.283C375.608 295.703 373.608 295.594 372.698 293.955C372.371 293.336 371.425 293.883 371.752 294.502Z" fill="#161616"/>
<path d="M333.595 96.6134C329.012 94.7562 326.247 90.3133 324.574 85.8705C322.792 81.2456 322.028 76.2201 322.283 71.2674C322.719 62.1268 326.611 52.877 333.813 47.0503C340.616 41.515 350.691 39.9491 358.257 44.9746C366.151 50.2186 367.569 61.0343 367.642 69.7379C367.715 79.4248 365.46 89.585 358.294 96.5406C357.785 97.014 358.548 97.8152 359.058 97.3054C365.86 90.6775 368.442 81.2092 368.697 71.9593C368.952 62.8916 367.86 51.4203 360.404 45.1931C353.42 39.3664 343.053 39.6577 335.596 44.3919C327.339 49.6359 322.464 59.1407 321.41 68.7183C320.755 74.6542 321.482 80.8086 323.665 86.4168C325.52 91.1509 328.466 95.6666 333.341 97.6331C333.959 97.9244 334.214 96.8683 333.595 96.6134Z" fill="#161616"/>
<path d="M333.086 97.3053C331.849 99.0533 332.104 101.639 333.923 102.95C335.305 103.933 337.342 104.079 338.979 104.297C340.943 104.589 342.944 104.698 344.944 104.698C348.509 104.661 352.583 104.407 355.893 103.023C358.294 102.003 360.113 99.5996 358.839 97.014C358.548 96.3949 357.603 96.9412 357.894 97.5602C360.622 103.132 347.709 103.605 344.908 103.605C342.325 103.605 339.743 103.387 337.233 102.913C336.032 102.695 334.686 102.476 333.923 101.42C333.159 100.328 333.304 98.9077 334.032 97.888C334.432 97.2689 333.486 96.7227 333.086 97.3053Z" fill="#161616"/>
<path d="M334.25 103.205C334.25 105.026 334.286 106.883 334.505 108.704C334.614 109.541 334.796 110.27 335.487 110.78C336.469 111.508 338.106 111.471 339.27 111.581C341.234 111.726 343.235 111.726 345.199 111.654C347.054 111.581 348.909 111.435 350.764 111.253C351.855 111.144 353.092 111.18 353.929 110.343C355.784 108.522 355.82 105.062 355.347 102.768C355.202 102.076 354.147 102.367 354.293 103.059C354.547 104.297 354.62 105.535 354.365 106.81C354.002 108.594 353.492 109.76 351.492 110.124C349.164 110.561 346.545 110.561 344.18 110.597C341.852 110.634 339.233 110.743 336.942 110.197C334.832 109.687 335.378 104.953 335.378 103.205C335.341 102.513 334.25 102.513 334.25 103.205Z" fill="#161616"/>
<path d="M334.614 63.9841C338.979 66.7153 342.289 70.7212 344.144 75.5282C344.398 76.1837 345.453 75.8923 345.199 75.2368C343.234 70.1385 339.779 65.9142 335.196 63.0372C334.577 62.6367 334.032 63.5835 334.614 63.9841Z" fill="#161616"/>
<path d="M345.017 75.5282C347.163 71.0125 350.291 67.1523 354.292 64.1662C354.838 63.7656 354.292 62.7823 353.747 63.2193C349.6 66.3147 346.326 70.3206 344.071 74.9819C343.78 75.601 344.726 76.1472 345.017 75.5282Z" fill="#161616"/>
<path d="M344.144 74.2536C344.689 81.7554 344.944 89.2573 344.835 96.7591C344.835 97.451 345.926 97.451 345.926 96.7591C346.035 89.2573 345.781 81.719 345.235 74.2536C345.162 73.5252 344.071 73.5252 344.144 74.2536Z" fill="#161616"/>
<path d="M301.549 92.6076C306.387 90.9688 311.188 89.3301 316.026 87.6913C316.681 87.4728 316.39 86.4167 315.735 86.6352C310.897 88.274 306.096 89.9127 301.258 91.5515C300.567 91.77 300.858 92.8261 301.549 92.6076Z" fill="#161616"/>
<path d="M307.078 85.3242C308.751 84.8508 310.424 84.341 312.097 83.8676C312.752 83.6855 312.498 82.6294 311.806 82.8115C310.133 83.2849 308.46 83.7947 306.787 84.2682C306.132 84.4867 306.387 85.5427 307.078 85.3242Z" fill="#161616"/>
<path d="M294.965 73.1975C301.367 73.1247 307.732 73.3068 314.098 73.7073C314.789 73.7438 314.789 72.6513 314.098 72.6148C307.732 72.2142 301.33 72.0686 294.965 72.105C294.274 72.105 294.274 73.1975 294.965 73.1975Z" fill="#161616"/>
<path d="M308.496 68.2448C310.024 68.6454 311.588 68.8275 313.152 68.8639C313.844 68.8639 313.844 67.7714 313.152 67.7714C311.661 67.735 310.206 67.5529 308.787 67.1887C308.096 67.0066 307.805 68.0627 308.496 68.2448Z" fill="#161616"/>
<path d="M306.132 34.3409C311.843 39.2572 317.044 44.6468 321.737 50.5463C322.173 51.0926 322.937 50.3278 322.501 49.7816C317.808 43.8821 312.607 38.456 306.896 33.5762C306.387 33.1027 305.586 33.8675 306.132 34.3409Z" fill="#161616"/>
<path d="M322.101 44.6832C323.083 45.7029 324.029 46.7226 325.011 47.7787C325.483 48.2885 326.247 47.5238 325.774 47.0139C324.792 45.9943 323.847 44.9746 322.865 43.9185C322.392 43.4087 321.628 44.1734 322.101 44.6832Z" fill="#161616"/>
<path d="M299.948 46.7226C301.731 47.7787 303.549 48.7619 305.404 49.6723C306.023 50.0001 306.568 49.0532 305.95 48.7255C304.095 47.7787 302.276 46.7954 300.494 45.7757C299.876 45.4116 299.33 46.3584 299.948 46.7226Z" fill="#161616"/>
<path d="M363.241 38.4196C368.624 33.0299 374.008 27.6403 379.391 22.2506C379.901 21.7407 379.1 20.976 378.627 21.4858C373.244 26.8755 367.86 32.2652 362.477 37.6548C361.968 38.1647 362.732 38.9294 363.241 38.4196Z" fill="#161616"/>
<path d="M368.661 40.9323C370.043 39.9127 371.425 38.9294 372.807 37.9098C373.353 37.5092 372.844 36.5623 372.262 36.9629C370.88 37.9826 369.497 38.9658 368.115 39.9855C367.533 40.3861 368.079 41.3329 368.661 40.9323Z" fill="#161616"/>
<path d="M346.435 31.2819C347.527 26.0015 348.363 20.6847 348.873 15.3314C348.945 14.6395 347.854 14.6395 347.781 15.3314C347.272 20.5754 346.472 25.8194 345.381 30.9906C345.235 31.6825 346.29 31.9738 346.435 31.2819Z" fill="#161616"/>
<path d="M377.027 64.7852C386.921 63.8748 396.778 62.9644 406.672 62.054C407.364 61.9812 407.364 60.8887 406.672 60.9615C396.778 61.8719 386.921 62.7823 377.027 63.6927C376.336 63.7292 376.299 64.8217 377.027 64.7852Z" fill="#161616"/>
<path d="M335.45 98.6163C341.598 99.9637 347.854 99.9273 353.965 98.5435C354.656 98.3978 354.365 97.3418 353.674 97.4874C347.745 98.8348 341.67 98.8712 335.741 97.5602C335.05 97.4146 334.759 98.4707 335.45 98.6163Z" fill="#161616"/>
<path d="M336.36 107.866C341.052 108.485 345.744 108.631 350.473 108.303C351.164 108.267 351.164 107.174 350.473 107.211C345.744 107.538 341.052 107.393 336.36 106.774C335.668 106.701 335.668 107.793 336.36 107.866Z" fill="#161616"/>
<path d="M370.152 94.9383C377.536 100.146 385.066 105.171 392.705 110.015C393.287 110.379 393.832 109.432 393.25 109.068C385.611 104.225 378.082 99.199 370.698 93.9914C370.116 93.5908 369.57 94.5377 370.152 94.9383Z" fill="#161616"/>
<path d="M277.214 351.093C270.303 359.578 263.428 368.027 256.517 376.512C264.628 405.063 269.211 412.564 271.94 412.164C273.904 411.873 274.85 407.612 275.904 402.841C278.523 390.933 276.959 380.7 275.359 374.327C279.724 369.447 284.052 364.531 288.417 359.651C284.671 356.81 280.961 353.97 277.214 351.093Z" fill="#161616" stroke="#161616" stroke-width="2" stroke-miterlimit="10"/>
<path d="M251.715 307.393C256.044 310.743 260.19 309.542 268.775 310.998C276.086 312.236 284.307 314.968 293.037 320.43C283.725 331.355 274.413 342.899 265.174 355.062C262.955 358.012 260.736 360.962 258.59 363.912C262.155 364.749 266.447 366.06 271.103 368.172C275.65 370.212 279.36 372.506 282.306 374.582C296.165 362.491 308.533 350.802 319.554 339.767C324.647 334.669 331.849 326.876 332.977 315.842C333.05 315.223 333.049 314.676 333.049 314.13C332.795 295.813 309.77 282.557 295.765 277.677C280.451 272.36 254.116 269.483 246.768 282.193C242.439 289.695 244.986 302.185 251.715 307.393Z" fill="#EC615B"/>
<path opacity="0.26" d="M278.596 289.076C278.342 292.535 277.723 296.65 276.45 301.202C275.541 304.443 274.449 307.32 273.358 309.76C272.158 310.234 270.994 310.707 269.793 311.18C277.614 314.276 285.471 317.371 293.292 320.467C287.472 327.131 281.615 334.123 275.723 341.406C269.648 348.908 263.864 356.264 258.372 363.511C262.264 364.786 266.12 366.06 270.012 367.298C283.943 351.931 297.875 336.526 311.807 321.159C313.262 316.971 313.189 313.693 312.752 311.399C310.752 300.183 297.038 291.042 278.596 289.076Z" fill="#6D6C6C"/>
<path opacity="0.23" d="M293.219 320.394C294.492 322.324 295.729 324.29 297.002 326.22C286.162 339.294 275.322 352.331 264.483 365.405C262.555 364.895 260.591 364.349 258.663 363.839C265.61 354.298 273.104 344.502 281.215 334.633C285.253 329.717 289.254 324.982 293.219 320.394Z" fill="#6D6C6C"/>
<path d="M257.026 337.255C267.756 339.221 278.523 341.151 289.254 343.118C301.658 370.212 303.04 378.952 300.712 380.445C299.039 381.501 295.547 378.879 291.655 375.929C281.906 368.537 276.486 359.724 273.54 353.788C267.065 352.914 260.59 352.004 254.116 351.13C255.061 346.505 256.044 341.88 257.026 337.255Z" fill="#161616" stroke="#161616" stroke-width="2" stroke-miterlimit="10"/>
<path d="M234.91 276.912C215.34 282.666 203.409 294.611 195.734 302.477C185.367 313.147 172.636 326.221 176.31 335.871C178.201 340.787 183.948 343.81 210.72 348.471C230.945 352.004 248.478 353.897 262.155 354.953C263.864 348.69 265.574 342.462 267.247 336.199C253.497 331.756 239.784 327.349 226.034 322.907C234.473 321.122 243.349 319.01 252.588 316.424C259.608 314.458 266.301 312.419 272.667 310.27C278.56 298.362 279.833 285.507 273.685 278.223C265.101 268.027 245.859 273.671 234.91 276.912Z" fill="#EC615B"/>
<path opacity="0.29" d="M278.451 289.513C278.269 293.118 277.65 297.743 275.977 302.841C274.959 305.936 273.795 308.631 272.631 310.853C271.649 310.926 270.666 311.035 269.684 311.108C261.391 313.839 252.552 316.424 243.203 318.828C237.165 320.394 231.272 321.741 225.561 322.979C239.347 327.313 253.134 331.61 266.92 335.944C266.629 337.437 266.265 339.003 265.829 340.642C265.319 342.535 264.737 344.283 264.192 345.886C245.167 341.188 226.143 336.49 207.119 331.792C206.246 330.736 203.373 326.912 203.809 321.851C204.282 316.352 209.52 312.455 216.213 308.886C235.565 298.617 268.011 291.661 278.451 289.513Z" fill="#6D6C6C"/>
<path opacity="0.24" d="M215.776 323.744C219.232 323.489 222.724 323.234 226.18 322.943C239.748 327.459 253.315 332.011 266.883 336.526C266.301 338.675 265.719 340.86 265.137 343.009C248.696 336.563 232.218 330.154 215.776 323.744Z" fill="#6D6C6C"/>
<path d="M229.781 194.392C235.164 191.224 244.513 186.708 256.953 185.397C276.014 183.394 290.636 190.241 296.42 193.336C295.365 207.648 293.728 219.083 292.419 226.949C290.855 236.344 289.581 241.552 288.999 250.183C288.272 260.998 289.181 269.884 290.018 275.711C283.689 277.677 274.122 279.826 262.337 279.571C250.988 279.316 241.821 276.84 235.674 274.691C237.311 261.654 236.765 251.311 235.965 244.283C235.055 236.453 233.819 232.63 232.327 223.161C230.399 210.925 229.89 200.911 229.781 194.392Z" fill="white" stroke="#161616" stroke-width="2" stroke-miterlimit="10"/>
<path opacity="0.14" d="M269.139 189.731C269.903 192.499 270.776 196.322 271.358 200.911C271.758 204.006 273.394 218.027 268.302 236.526C265.174 247.925 261.864 259.979 251.024 269.884C247.532 273.089 244.149 275.237 241.676 276.585C247.168 278.005 254.334 279.352 262.809 279.425C273.904 279.534 283.07 277.531 289.436 275.565C289.072 272.834 288.599 268.719 288.417 263.766C288.272 259.432 288.272 252.513 291.255 233.03C293.619 217.699 295.292 211.107 296.129 197.233C296.238 195.63 296.274 194.283 296.347 193.373C293.692 191.807 290.236 190.095 285.98 188.711C282.052 187.437 278.523 186.781 275.613 186.49C273.504 187.546 271.321 188.638 269.139 189.731Z" fill="#6D6C6C"/>
<path opacity="0.17" d="M295.292 199.308C293.255 210.852 290.564 220.175 288.454 226.657C282.27 245.594 277.941 258.34 266.265 267.662C259.026 273.453 251.497 275.893 246.659 277.058C251.57 278.442 258.517 279.789 266.92 279.607C276.596 279.389 284.416 277.204 289.545 275.346C288.854 270.904 288.054 264.239 288.272 256.118C288.527 245.594 290.236 239.257 292.128 227.713C293.183 220.94 294.528 211.253 295.292 199.308Z" fill="#6D6C6C"/>
<path d="M229.563 194.21C224.834 197.488 218.759 202.659 213.448 210.343C201.481 227.75 201.808 246.213 202.281 253.023C204.464 258.886 208.211 266.57 214.758 274.108C218.577 278.515 224.179 284.851 233.746 288.93C236.947 290.314 239.748 291.078 241.785 291.515C243.531 289.949 245.24 288.384 246.986 286.818C241.384 280.263 235.746 273.38 230.108 266.279C225.78 260.853 221.633 255.463 217.632 250.146C217.777 245.667 218.723 237.546 223.597 229.061C226.362 224.254 229.599 220.758 232.182 218.391C231.309 210.343 230.436 202.295 229.563 194.21Z" fill="white" stroke="#161616" stroke-width="2" stroke-miterlimit="10"/>
<path opacity="0.13" d="M230.254 202.331C219.778 214.166 214.794 225.383 212.321 232.448C207.992 244.684 208.902 251.093 209.556 254.152C210.102 256.555 211.302 260.67 215.704 266.934C219.523 272.36 227.562 282.083 242.876 290.095C244.222 288.784 245.568 287.51 246.913 286.199C242.585 281.319 238.22 276.184 233.818 270.831C228.035 263.802 222.651 256.883 217.668 250.11C217.813 246.432 218.432 241.297 220.578 235.543C223.815 226.912 228.908 221.231 232.072 218.209C231.418 212.928 230.836 207.648 230.254 202.331Z" fill="#6D6C6C"/>
<path opacity="0.16" d="M217.632 250.583C218.286 254.844 219.632 260.27 222.469 266.133C228.726 278.879 238.511 285.907 243.494 288.966C244.476 288.092 245.422 287.255 246.404 286.381C236.801 274.436 227.235 262.491 217.632 250.583Z" fill="#6D6C6C"/>
<path d="M296.966 193.555C302.276 196.796 309.115 201.858 315.044 209.396C328.503 226.475 328.103 244.611 327.593 251.311C325.12 257.065 320.937 264.604 313.589 272.033C309.297 276.33 303.004 282.557 292.273 286.599C288.672 287.947 285.507 288.711 283.216 289.148C281.288 287.619 279.324 286.089 277.396 284.56C283.652 278.114 290.018 271.377 296.347 264.385C301.185 259.032 305.841 253.751 310.352 248.544C310.17 244.174 309.151 236.198 303.659 227.823C300.53 223.088 296.929 219.665 294.019 217.335C295.038 209.396 296.02 201.493 296.966 193.555Z" fill="white" stroke="#161616" stroke-width="2" stroke-miterlimit="10"/>
<path opacity="0.16" d="M296.711 202.404C301.331 207.247 307.623 215.004 312.534 225.82C314.862 230.954 318.645 239.294 318.718 247.16C318.972 271.086 285.144 287.546 283.179 288.493C281.251 287.255 279.36 286.053 277.432 284.815C288.381 272.797 299.294 260.78 310.242 248.762C310.024 244.829 309.115 237.509 304.75 229.716C301.149 223.307 296.674 219.155 293.728 216.861C294.747 212.054 295.729 207.247 296.711 202.404Z" fill="#6D6C6C"/>
<path opacity="0.12" d="M310.606 248.872C310.061 252.04 309.151 255.499 307.733 259.068C301.331 275.237 288.381 284.086 281.833 287.874C280.269 286.854 278.742 285.834 277.177 284.815C288.308 272.834 299.439 260.853 310.606 248.872Z" fill="#6D6C6C"/>
<path d="M305.332 251.566H215.886V308.267H305.332V251.566Z" fill="white" stroke="#161616" stroke-width="2" stroke-miterlimit="10"/>
<path d="M259.317 285.325C254.589 285.907 252.297 280.153 253.534 276.33C254.734 272.542 259.208 270.758 262.846 272.069C266.447 273.38 268.193 277.786 266.92 281.319C265.501 285.252 260.554 286.854 256.917 285.106C256.298 284.815 255.716 285.762 256.371 286.053C259.608 287.619 263.573 287.036 266.156 284.487C268.666 281.974 269.029 278.005 267.465 274.909C263.901 267.845 252.879 270.102 252.115 277.859C251.715 282.011 254.698 287 259.317 286.453C260.008 286.344 260.008 285.252 259.317 285.325Z" fill="#161616"/>
<path opacity="0.14" d="M249.46 251.421C261.573 255.645 269.83 266.461 270.084 278.078C270.412 292.644 258.19 306.337 241.53 307.721C262.737 307.903 283.943 308.085 305.186 308.267C305.114 289.258 305.077 270.248 305.004 251.275C286.49 251.275 267.975 251.348 249.46 251.421Z" fill="#6D6C6C"/>
<path opacity="0.26" d="M305.186 251.239C304.859 262.819 302.567 271.85 300.639 277.786C297.802 286.417 295.765 292.717 289.909 298.289C281.943 305.936 272.012 307.357 267.647 307.721C280.051 307.83 292.455 307.939 304.859 308.085C304.895 297.269 304.968 286.454 305.041 275.601C305.041 267.48 305.113 259.36 305.186 251.239Z" fill="#6D6C6C"/>
<path d="M257.971 165.004C255.971 167.444 257.899 170.43 257.535 178.405C257.353 182.375 256.698 185.579 256.189 187.728C257.899 188.529 260.918 189.658 264.81 189.767C269.611 189.877 273.249 188.383 275.031 187.509C274.231 185.907 273.176 183.431 272.521 180.226C270.885 172.069 273.795 168.245 271.394 165.222C268.593 161.726 260.663 161.69 257.971 165.004Z" fill="white" stroke="#161616" stroke-width="2" stroke-miterlimit="10"/>
<path d="M245.277 129.971C242.985 135.871 243.858 141.187 244.367 143.482C244.149 143.518 239.893 144.428 238.729 147.706C237.565 151.02 239.966 155.718 244.986 157.247C246.804 161.69 251.206 170.284 260.481 174.982C262.046 175.747 263.537 176.366 265.028 176.803C266.374 176.293 268.193 175.492 270.266 174.29C276.741 170.539 280.342 165.878 281.179 164.749C282.707 162.71 284.78 159.432 286.235 154.916C287.035 155.062 288.454 155.135 289.836 154.443C292.964 152.841 294.528 147.852 292.346 144.611C290.527 141.916 286.999 141.806 286.562 141.806C287.035 139.913 288.49 133.103 284.816 126.366C280.597 118.609 271.539 114.53 263.028 115.696C250.442 117.334 245.495 129.388 245.277 129.971Z" fill="white" stroke="#161616" stroke-width="2" stroke-miterlimit="10"/>
<path d="M257.499 174.654C259.718 175.965 262.155 178.005 264.883 177.786C267.138 177.604 269.648 176.293 271.358 174.909C271.903 174.472 271.139 173.708 270.594 174.145C268.993 175.419 266.411 176.766 264.301 176.73C262.082 176.694 259.827 174.836 258.008 173.708C257.462 173.343 256.917 174.29 257.499 174.654Z" fill="#161616"/>
<path d="M257.353 175.128C259.427 176.912 261.791 178.915 264.701 178.769C267.538 178.624 270.194 176.73 272.049 174.691C272.522 174.181 271.758 173.416 271.285 173.926C269.684 175.674 267.429 177.386 264.956 177.64C262.227 177.895 260.045 176.038 258.117 174.363C257.608 173.89 256.844 174.654 257.353 175.128Z" fill="#161616"/>
<path d="M258.735 175.346C258.735 175.31 258.735 175.31 258.735 175.346C258.517 175.019 258.117 174.946 257.862 175.201C257.862 175.201 257.862 175.201 257.826 175.237C257.608 175.419 257.608 175.82 257.826 176.002C261.827 179.825 269.175 181.064 272.049 175.201C272.34 174.582 271.43 173.999 271.103 174.654C268.557 179.898 262.118 178.624 258.626 175.237C258.626 175.492 258.626 175.747 258.626 176.002C258.626 176.002 258.626 176.002 258.663 175.965C258.372 175.929 258.081 175.892 257.79 175.856V175.892C258.153 176.475 259.099 175.929 258.735 175.346Z" fill="#161616"/>
<path d="M263.1 141.661C262.628 147.56 262.882 153.423 263.828 159.25C263.864 159.541 264.228 159.723 264.483 159.614C265.901 159.141 266.92 158.303 267.684 157.029C268.047 156.41 267.102 155.863 266.738 156.482C266.119 157.538 265.356 158.158 264.192 158.558C264.41 158.667 264.628 158.813 264.846 158.922C263.901 153.205 263.682 147.415 264.155 141.624C264.264 140.932 263.173 140.932 263.1 141.661Z" fill="#161616"/>
<path d="M256.626 147.451C256.698 147.779 257.244 149.818 256.626 150.146C256.007 150.474 254.261 149.163 253.716 147.451C253.279 145.994 253.643 144.174 254.334 144.028C255.062 143.846 256.189 145.849 256.626 147.451Z" fill="#161616" stroke="#161616" stroke-miterlimit="10"/>
<path d="M275.395 147.451C275.468 147.779 276.014 149.818 275.395 150.146C274.777 150.474 273.031 149.163 272.485 147.451C272.049 145.994 272.412 144.174 273.104 144.028C273.831 143.846 274.959 145.849 275.395 147.451Z" fill="#161616" stroke="#161616" stroke-miterlimit="10"/>
<path d="M261.791 164.057C266.229 165.951 270.266 163.292 273.54 160.415C274.086 159.942 273.285 159.177 272.776 159.651C269.939 162.127 266.301 164.785 262.373 163.11C261.682 162.855 261.136 163.802 261.791 164.057Z" fill="#161616"/>
<path d="M274.595 153.241C275.286 153.241 275.286 152.149 274.595 152.149C273.904 152.149 273.904 153.241 274.595 153.241Z" fill="#161616"/>
<path d="M278.633 151.202C278.669 151.166 278.705 151.129 278.742 151.093C278.96 150.874 278.96 150.546 278.742 150.328C278.523 150.109 278.196 150.109 277.978 150.328C277.941 150.364 277.905 150.401 277.869 150.437C277.65 150.656 277.65 150.984 277.869 151.202C278.087 151.42 278.414 151.42 278.633 151.202Z" fill="#161616"/>
<path d="M277.432 153.86C277.469 153.86 277.505 153.86 277.541 153.86C277.832 153.86 278.087 153.605 278.087 153.314C278.087 153.023 277.832 152.768 277.541 152.768C277.505 152.768 277.469 152.768 277.432 152.768C277.141 152.768 276.887 153.023 276.887 153.314C276.887 153.605 277.105 153.86 277.432 153.86Z" fill="#161616"/>
<path d="M252.333 140.932C253.716 139.767 255.753 139.731 257.135 140.86C257.681 141.297 258.444 140.532 257.899 140.095C256.007 138.565 253.388 138.565 251.533 140.168C251.024 140.605 251.824 141.369 252.333 140.932Z" fill="#161616"/>
<path d="M270.084 140.532C271.648 139.148 273.867 138.893 275.722 139.876C276.341 140.204 276.886 139.257 276.268 138.93C273.976 137.691 271.248 138.019 269.32 139.767C268.775 140.241 269.539 141.005 270.084 140.532Z" fill="#161616"/>
<path d="M252.624 153.132C253.316 153.132 253.316 152.04 252.624 152.04C251.933 152.04 251.933 153.132 252.624 153.132Z" fill="#161616"/>
<path d="M256.48 152.622C257.171 152.622 257.171 151.53 256.48 151.53C255.789 151.53 255.789 152.622 256.48 152.622Z" fill="#161616"/>
<path d="M254.552 153.46C254.516 153.496 254.479 153.533 254.443 153.569C254.225 153.788 254.225 154.115 254.443 154.334C254.661 154.552 254.989 154.552 255.207 154.334C255.243 154.297 255.28 154.261 255.316 154.225C255.534 154.006 255.534 153.678 255.316 153.46C255.098 153.241 254.77 153.241 254.552 153.46Z" fill="#161616"/>
<path d="M251.206 118.136C249.023 119.483 244.258 122.433 241.021 128.478C237.783 134.487 237.82 140.168 237.965 142.608C232.655 152.185 230.254 160.634 229.09 166.388C227.198 175.528 228.217 178.879 229.526 181.1C232.727 186.563 239.166 187.91 240.73 188.238C248.769 189.949 255.171 185.834 256.626 184.887C257.026 183.686 257.426 182.193 257.644 180.517C258.044 177.641 257.826 175.164 257.499 173.38C255.68 171.887 253.57 169.884 251.533 167.262C248.441 163.256 246.695 159.323 245.713 156.482C242.512 156.155 240.111 153.97 239.893 151.53C239.675 149.236 241.275 146.286 243.385 146.286C244.949 146.286 246.077 147.888 246.295 148.179C247.495 147.487 249.169 146.286 250.66 144.392C252.806 141.661 253.17 139.221 254.152 136.672C255.098 134.195 256.917 130.772 260.845 127.203C264.628 128.551 267.647 129.862 269.721 130.845C276.377 133.94 280.16 135.761 283.107 139.731C284.743 141.916 285.58 144.064 286.017 145.412C289.399 142.826 290.782 143.518 291.073 143.664C293.219 144.866 293.146 151.457 289.8 153.278C288.526 153.97 287.071 153.788 286.162 153.569C285.107 157.247 282.779 163.256 277.432 168.573C275.65 170.357 273.831 171.741 272.194 172.797C272.049 174.145 271.976 176.002 272.34 178.187C272.667 180.19 273.249 181.828 273.795 182.994C282.634 188.82 293.619 187.764 299.584 181.501C304.895 175.893 304.895 167.407 302.895 161.617C301.076 156.337 297.547 153.168 295.801 151.785C296.274 149.745 298.893 137.655 291.291 126.548C289.327 123.671 283.834 116.715 273.94 114.312C263.464 111.763 254.843 115.914 251.206 118.136Z" fill="#5222D0"/>
<path opacity="0.17" d="M274.267 133.103C278.378 138.274 279.469 143.045 279.833 145.521C281.324 155.936 275.286 164.385 272.23 168.718C269.721 172.251 267.138 174.764 265.283 176.402C266.883 180.7 268.447 184.96 270.048 189.257C271.685 188.711 273.322 188.165 274.959 187.619C274.195 186.271 273.394 184.596 272.776 182.557C271.648 178.915 271.576 175.71 271.685 173.525C273.685 172.105 276.013 170.175 278.269 167.626C282.779 162.528 285.034 157.284 286.198 153.751C286.926 153.897 288.49 154.079 289.981 153.241C293.11 151.457 292.6 147.014 292.564 146.723C292.455 145.776 292.237 144.246 291.145 143.627C289.872 142.935 287.763 143.591 286.089 145.557C285.58 143.773 284.125 139.658 280.197 136.38C278.014 134.56 275.795 133.613 274.267 133.103Z" fill="#6D6C6C"/>
<path opacity="0.19" d="M263.61 141.989C263.391 141.952 262.664 145.12 260.445 159.104C261.718 159.104 262.991 159.104 264.264 159.104C264.01 157.247 263.719 154.552 263.573 151.275C263.391 145.667 263.828 142.025 263.61 141.989Z" fill="#6D6C6C"/>
<path opacity="0.54" d="M295.583 152.149C294.965 152.513 297.293 155.645 296.966 160.306C296.856 161.763 296.638 165.077 294.019 167.298C293.837 167.444 289.945 170.648 286.089 168.609C283.798 167.407 282.416 164.858 282.488 162.091C281.397 164.13 279.615 166.825 276.814 169.447C275.068 171.085 273.358 172.287 271.867 173.198C271.758 174.8 271.758 176.985 272.34 179.461C272.667 180.809 273.067 181.974 273.467 182.921C274.595 183.649 276.268 184.632 278.451 185.397C279.833 185.871 287.435 188.529 294.856 184.851C296.165 184.195 299.075 182.702 301.185 179.498C301.44 179.097 302.385 177.677 303.077 175.273C305.55 167.043 301.913 159.614 301.585 158.995C299.585 154.953 296.347 151.712 295.583 152.149Z" fill="#341999"/>
<path opacity="0.35" d="M245.677 156.628C245.349 156.664 246.077 159.651 245.277 162.6C244.695 164.785 242.84 168.354 239.675 169.083C236.365 169.811 232.254 167.371 230.363 162.819C229.49 164.822 228.326 168.027 228.144 172.105C228.035 174.764 227.889 177.604 229.199 180.408C232.145 186.672 240.803 189.112 247.241 188.529C251.533 188.129 254.771 186.453 256.517 185.324C256.953 184.086 257.39 182.593 257.681 180.882C258.153 177.932 258.044 175.346 257.79 173.453C254.916 171.377 252.952 169.228 251.715 167.662C249.969 165.441 247.605 162.455 246.404 158.303C246.222 157.83 245.895 156.592 245.677 156.628Z" fill="#341999"/>
</svg>
