<svg width="428" height="321" viewBox="0 0 428 321" fill="none" xmlns="http://www.w3.org/2000/svg">
<path d="M108.846 275.819C124.441 275.819 138.94 282.373 154.214 284.513C169.06 286.573 183.746 283.175 198.351 280.875C205.708 279.725 213.144 278.815 220.607 279.19C228.311 279.591 235.454 281.677 242.462 284.78C248.802 287.616 255.008 290.906 261.722 292.805C268.115 294.624 274.696 294.705 281.223 293.554C296.577 290.853 310.701 282.48 326.564 282.56C327.072 282.56 327.072 281.758 326.564 281.758C312.681 281.678 300.028 288.017 286.867 291.468C280.019 293.26 272.877 294.223 265.868 292.939C258.78 291.655 252.253 288.392 245.779 285.396C239.359 282.427 232.859 279.832 225.797 278.869C218.521 277.879 211.165 278.307 203.915 279.27C189.203 281.169 174.571 285.182 159.644 284.272C142.39 283.202 126.314 275.044 108.899 275.044C108.338 275.017 108.338 275.819 108.846 275.819Z" fill="#161616"/>
<path d="M87.3388 279.029C90.522 277.826 93.7855 276.97 97.156 276.461C97.6643 276.381 97.4503 275.605 96.942 275.686C93.5715 276.167 90.308 277.023 87.1248 278.254C86.6433 278.441 86.8573 279.217 87.3388 279.029Z" fill="#161616"/>
<path d="M81.6143 285.984C99.5368 278.093 118.877 287.001 136.398 291.522C141.534 292.859 146.777 293.849 152.101 294.143C152.609 294.17 152.609 293.367 152.101 293.341C132.787 292.297 115.239 281.517 95.6848 282.159C90.7093 282.32 85.7873 283.309 81.2398 285.316C80.7583 285.503 81.1595 286.198 81.6143 285.984Z" fill="#161616"/>
<path d="M164.593 300.697C168.712 300.082 172.618 298.717 176.55 297.38C180.455 296.069 184.388 294.946 188.4 294.116C196.693 292.431 205.199 291.869 213.626 292.458C218.521 292.806 223.389 293.555 228.151 294.651C228.659 294.758 228.873 293.982 228.365 293.875C211.833 290.05 194.339 290.746 178.182 295.989C173.607 297.46 169.14 299.199 164.352 299.921C163.87 300.001 164.084 300.777 164.593 300.697Z" fill="#161616"/>
<path d="M260.438 301.793C266.002 304.656 272.368 304.709 278.441 303.88C285.476 302.944 292.377 301.071 299.199 299.038C312.761 294.999 326.27 290.077 340.527 289.221C348.365 288.739 356.256 289.569 363.613 292.377C364.094 292.565 364.308 291.789 363.827 291.602C336.889 281.276 309.604 297.085 283.443 302.221C276.033 303.666 267.821 304.656 260.866 301.071C260.384 300.857 259.983 301.553 260.438 301.793Z" fill="#161616"/>
<path d="M342.534 282.908C348.606 282.747 354.625 283.924 360.189 286.439C360.643 286.653 361.071 285.957 360.59 285.743C354.919 283.175 348.767 281.945 342.534 282.105C341.999 282.132 341.999 282.935 342.534 282.908Z" fill="#161616"/>
<path d="M153.438 283.443C151.351 281.249 149.72 278.655 148.676 275.792C148.222 274.508 147.874 273.198 147.66 271.86C147.526 271.058 146.991 268.811 148.837 269.319C149.559 269.533 150.388 270.656 150.79 271.245C151.084 271.673 151.779 271.272 151.485 270.844C150.094 268.837 149.051 266.617 148.409 264.263C148.088 263.086 147.874 261.856 147.74 260.625C147.687 260.037 147.66 259.448 147.66 258.833C147.66 258.539 147.66 258.244 147.687 257.95C147.633 257.362 147.901 256.907 148.543 256.586C148.81 256.506 149.051 256.452 149.318 256.372C148.89 255.275 148.569 254.152 148.355 253.001C148.248 252.359 148.168 251.691 148.115 251.022C148.115 250.942 148.168 248.481 148.596 248.935C148.864 249.23 149.399 248.935 149.265 248.534C147.901 244.227 147.633 239.653 148.596 235.213C148.783 234.357 148.944 233.099 149.559 232.404C150.362 231.494 151.512 231.976 152.1 232.832C152.475 233.367 152.716 233.982 152.93 234.597C153.598 236.63 153.839 238.824 154.24 240.91C155.979 250.032 157.638 259.181 158.601 268.436C159.136 273.626 159.457 278.842 159.457 284.058C159.457 284.566 160.259 284.566 160.259 284.058C160.259 273.224 158.868 262.444 157.049 251.771C156.14 246.501 155.23 241.178 154.107 235.935C153.732 234.223 153.117 231.762 151.271 231.066C149.907 230.558 148.917 231.655 148.462 232.832C146.563 237.754 146.964 243.773 148.516 248.721C148.73 248.588 148.971 248.454 149.185 248.32C148.195 247.304 147.392 248.614 147.312 249.551C147.125 251.878 147.713 254.366 148.543 256.506C148.73 256.987 149.479 256.8 149.318 256.292C149.078 255.516 148.141 255.275 147.499 255.81C146.429 256.693 146.831 259.181 146.938 260.331C147.232 264.236 148.596 267.955 150.79 271.165C151.03 271.031 151.244 270.897 151.485 270.763C150.79 269.774 149.158 267.714 147.713 268.276C146.242 268.837 146.75 271.111 146.938 272.235C147.687 276.648 149.8 280.714 152.876 283.951C153.224 284.379 153.812 283.817 153.438 283.443Z" fill="#E8E8E8"/>
<path d="M159.162 263.835C159.162 261.214 159.403 258.619 159.911 256.078C160.125 255.088 161.409 248.695 162.56 248.882C162.747 248.909 163.014 248.828 163.041 248.614C163.576 245.779 164.325 242.997 165.315 240.295C166.278 237.727 167.348 234.41 169.568 232.645C169.381 232.645 169.194 232.645 169.006 232.645C170.424 234.196 170.023 237.005 170.05 238.958C170.05 241.098 169.996 243.238 169.862 245.404C169.595 249.925 169.06 254.419 168.338 258.86C166.947 267.553 164.86 276.14 162.747 284.7C162.613 285.208 163.389 285.422 163.523 284.914C165.823 275.685 168.043 266.457 169.434 257.041C170.103 252.573 170.558 248.106 170.745 243.612C170.852 241.205 170.879 238.797 170.799 236.39C170.745 234.838 170.665 233.287 169.568 232.11C169.408 231.949 169.167 231.976 169.006 232.11C166.866 233.795 165.85 236.737 164.887 239.198C163.71 242.194 162.854 245.271 162.265 248.427C162.426 248.347 162.586 248.24 162.747 248.16C161.918 248.026 161.49 248.507 161.142 249.23C160.446 250.728 159.965 252.386 159.564 253.991C158.708 257.228 158.333 260.572 158.333 263.915C158.36 264.343 159.162 264.343 159.162 263.835Z" fill="#E8E8E8"/>
<path d="M279.538 293.18C278.2 290.986 277.077 288.686 276.194 286.252C275.793 285.155 275.445 284.031 275.151 282.881C274.99 282.266 274.856 281.651 274.723 281.035C274.669 280.741 274.589 280.42 274.535 280.099C274.268 279.457 274.535 279.029 275.311 278.815C275.579 278.788 275.846 278.735 276.087 278.708C275.365 276.729 274.856 274.696 274.589 272.582C274.455 271.539 274.375 270.523 274.375 269.479C274.375 268.971 274.749 266.51 274.455 266.189C274.696 266.457 275.151 266.243 275.151 265.895C275.097 263.354 275.231 260.839 275.659 258.325C275.846 257.174 276.114 256.051 276.408 254.927C276.568 254.366 276.729 253.804 276.889 253.242C276.996 252.921 277.103 252.6 277.21 252.306C277.317 251.61 277.745 251.316 278.548 251.45C278.708 251.851 279.35 251.824 279.324 251.343C279.297 248.695 279.698 246.1 280.634 243.612C280.875 242.997 281.651 240.509 282.56 240.456C283.737 240.402 283.764 243.585 283.818 244.227C284.272 249.497 284.62 254.794 284.807 260.09C285.208 270.87 285.102 281.651 284.46 292.404C284.433 292.912 285.235 292.912 285.262 292.404C285.824 282.961 285.984 273.519 285.743 264.076C285.61 259.395 285.396 254.713 285.075 250.059C284.914 247.758 284.754 245.485 284.513 243.184C284.379 241.766 284.112 240.456 282.881 239.6C282.748 239.519 282.614 239.546 282.48 239.6C280.741 240.429 280.073 242.569 279.538 244.308C278.815 246.581 278.494 248.962 278.521 251.37C278.789 251.343 279.056 251.289 279.297 251.263C279.029 250.54 278.254 250.219 277.531 250.567C276.354 251.102 276.06 253.215 275.739 254.259C274.669 258.057 274.214 261.989 274.321 265.922C274.562 265.815 274.776 265.734 275.017 265.627C274.963 265.574 274.937 265.547 274.883 265.494C274.803 265.387 274.616 265.333 274.482 265.387C273.893 265.601 273.76 265.975 273.653 266.564C273.412 267.981 273.492 269.533 273.599 270.951C273.786 273.679 274.375 276.354 275.311 278.922C275.445 279.323 276.14 279.297 276.087 278.815C276.007 277.986 275.124 277.531 274.348 277.959C273.091 278.628 273.786 280.688 274 281.704C274.937 285.904 276.595 289.89 278.815 293.554C279.11 294.009 279.805 293.608 279.538 293.18Z" fill="#E8E8E8"/>
<path d="M285.984 273.117C285.957 271.673 286.091 270.255 286.385 268.837C286.519 268.195 286.706 267.553 286.92 266.938C287.001 266.724 287.857 264.263 288.365 265.012C288.579 265.333 289.087 265.226 289.114 264.798C289.194 263.621 289.355 262.471 289.676 261.347C289.81 260.866 290.987 257.522 291.522 257.843C291.789 258.03 292.11 257.79 292.137 257.495C292.297 255.141 292.832 252.841 293.795 250.701C294.25 249.658 294.812 248.641 295.454 247.705C295.962 246.929 296.738 245.618 297.54 245.11C299.627 243.773 299.252 247.036 299.226 247.999C299.172 249.203 299.092 250.407 299.012 251.637C298.824 254.232 298.557 256.8 298.209 259.368C296.818 269.827 294.357 280.099 291.923 290.344C291.816 290.853 292.565 291.067 292.698 290.558C294.999 280.955 297.299 271.325 298.717 261.535C299.386 256.88 299.867 252.199 300.055 247.491C300.108 246.367 300.269 244.548 299.038 243.933C297.754 243.291 296.684 244.869 295.989 245.699C293.234 249.069 291.628 253.189 291.334 257.549C291.548 257.442 291.736 257.308 291.95 257.201C289.649 255.73 288.392 263.648 288.338 264.852C288.579 264.771 288.846 264.718 289.087 264.638C288.178 263.3 287.028 264.611 286.6 265.601C285.61 267.981 285.182 270.576 285.208 273.144C285.182 273.626 285.984 273.626 285.984 273.117Z" fill="#E8E8E8"/>
<path d="M93.9192 275.525C92.8492 275.097 91.8327 274.482 91.164 273.519C90.843 273.064 90.629 272.556 90.4417 272.048C90.3882 271.941 89.88 270.309 90.522 270.63C90.95 270.844 91.2977 270.362 91.0035 269.988C89.559 268.142 88.5157 266.029 88.0075 263.728C87.8737 263.113 87.5527 262.23 87.6865 261.615C87.954 260.385 89.1845 260.224 89.987 261C90.843 261.829 91.592 262.846 92.2607 263.835C94.7485 267.447 96.2732 271.619 96.728 275.98C96.7815 276.488 97.584 276.488 97.5305 275.98C97.2362 273.01 96.4605 270.148 95.23 267.42C94.0797 264.905 92.3945 261.856 90.201 260.117C89.4787 259.555 88.4622 259.181 87.633 259.716C86.67 260.304 86.884 261.615 86.991 262.551C87.3655 265.521 88.596 268.249 90.4417 270.603C90.6022 270.389 90.7627 270.175 90.9232 269.961C90.4685 269.747 89.987 269.72 89.6125 270.148C89.0507 270.764 89.3985 271.62 89.666 272.288C90.415 274.295 91.699 275.552 93.6785 276.354C94.1867 276.488 94.4007 275.712 93.9192 275.525Z" fill="#E8E8E8"/>
<path d="M94.802 266.858C93.7052 262.685 92.6352 258.619 92.1002 254.339C91.9665 253.322 91.8327 252.279 91.7525 251.263C91.6722 250.219 91.4048 248.695 91.6723 247.678C91.6723 247.518 91.699 247.33 91.699 247.17C92.5282 246.26 93.1435 246.207 93.5447 247.063C93.7855 247.411 93.9995 247.812 94.1867 248.213C94.695 249.096 95.1497 250.005 95.5777 250.942C99.1622 258.458 100.821 266.778 100.473 275.097C100.446 275.605 101.249 275.605 101.275 275.097C101.703 265.44 99.4565 255.302 94.4275 247.009C93.8122 245.993 92.3142 244.602 91.271 245.993C90.8163 246.581 90.8698 247.544 90.8698 248.24C90.8163 249.604 90.9232 250.995 91.0837 252.359C91.3512 254.767 91.592 257.228 92.127 259.609C92.6887 262.15 93.411 264.638 94.0797 267.152C94.16 267.554 94.9357 267.339 94.802 266.858Z" fill="#E8E8E8"/>
<path d="M78.217 204.156C95.8987 203.728 113.126 208.195 129.898 213.358C146.67 218.521 163.309 224.513 180.696 227.375C189.417 228.819 198.271 229.381 207.098 228.712C216.809 227.99 226.358 226.011 235.774 223.603C245.378 221.142 254.874 218.28 264.477 215.739C274.107 213.171 283.791 210.843 293.554 208.837C313.269 204.771 333.305 202.043 353.474 201.561C355.909 201.508 358.37 201.481 360.804 201.481C361.312 201.481 361.312 200.678 360.804 200.678C341.036 200.625 321.321 202.818 301.874 206.403C282.266 210.041 263.113 215.311 243.906 220.607C234.383 223.255 224.78 225.69 214.99 227.081C205.654 228.391 196.238 228.552 186.875 227.455C169.274 225.422 152.395 219.644 135.596 214.321C119.011 209.078 102.078 204.076 84.6102 203.407C82.4702 203.327 80.3302 203.327 78.1902 203.38C77.682 203.38 77.682 204.183 78.217 204.156Z" fill="#E8E8E8"/>
<path d="M252.359 208.275C270.63 203.246 288.445 196.8 306.528 191.129C324.558 185.458 342.962 180.509 361.82 178.583C372.333 177.513 382.953 177.379 393.466 178.583C393.974 178.636 393.974 177.834 393.466 177.78C374.794 175.667 355.935 177.727 337.665 181.766C319.127 185.859 301.151 191.985 283.149 197.923C272.877 201.32 262.605 204.637 252.172 207.5C251.637 207.633 251.851 208.409 252.359 208.275Z" fill="#E8E8E8"/>
<path d="M193.536 250.754C200.384 252.333 207.446 251.61 214.294 250.353C221.463 249.042 228.498 247.17 235.534 245.19C249.711 241.231 263.808 237.192 278.548 236.069C286.867 235.453 295.24 235.614 303.532 236.497C304.04 236.55 304.04 235.748 303.532 235.694C289.141 234.143 274.589 234.865 260.411 237.861C246.314 240.83 232.671 245.645 218.601 248.668C210.496 250.407 201.989 251.878 193.777 249.979C193.242 249.872 193.028 250.647 193.536 250.754Z" fill="#E8E8E8"/>
<path d="M326.51 255.944C344.433 254.981 361.018 262.979 378.218 266.617C383.033 267.634 387.902 268.302 392.824 268.383C393.332 268.383 393.332 267.58 392.824 267.58C374.928 267.286 358.53 259.074 341.089 256.104C336.274 255.275 331.406 254.874 326.51 255.141C326.002 255.195 325.975 255.997 326.51 255.944Z" fill="#E8E8E8"/>
<path d="M65.4572 173.393C83.995 173.179 102.506 176.55 119.76 183.318C124.708 185.27 129.55 187.517 134.258 190.005C134.713 190.246 135.114 189.55 134.659 189.31C118.208 180.589 100.098 175.132 81.5875 173.286C76.2375 172.751 70.834 172.511 65.4572 172.591C64.949 172.591 64.949 173.393 65.4572 173.393Z" fill="#E8E8E8"/>
<path d="M84.1287 142.016C98.761 145.68 112.109 152.876 125.939 158.735C139.903 164.646 154.562 168.739 169.568 170.772C178.021 171.922 186.581 172.431 195.115 172.297C195.623 172.297 195.623 171.494 195.115 171.494C179.733 171.735 164.325 169.863 149.452 165.957C142.15 164.031 135.007 161.624 128.026 158.735C121.097 155.872 114.303 152.609 107.455 149.586C99.938 146.269 92.3142 143.219 84.3427 141.24C83.8612 141.106 83.6472 141.882 84.1287 142.016Z" fill="#E8E8E8"/>
<path d="M183.826 188.213C197.709 193.563 212.957 190.647 226.572 185.939C233.902 183.398 241.017 180.348 248.293 177.7C255.436 175.105 262.685 172.858 270.041 170.959C278.548 168.766 287.188 167.054 295.882 165.823C296.39 165.743 296.176 164.967 295.668 165.048C280.607 167.187 265.788 170.772 251.423 175.747C237.299 180.643 223.63 187.571 208.677 189.684C200.411 190.861 191.878 190.46 184.04 187.437C183.558 187.25 183.344 188.026 183.826 188.213Z" fill="#E8E8E8"/>
<path d="M133.161 140.678C134.668 140.678 135.89 139.481 135.89 138.003C135.89 136.526 134.668 135.328 133.161 135.328C131.655 135.328 130.433 136.526 130.433 138.003C130.433 139.481 131.655 140.678 133.161 140.678Z" fill="#5222D0"/>
<path d="M237.46 175.962C238.612 175.962 239.546 175.051 239.546 173.929C239.546 172.806 238.612 171.896 237.46 171.896C236.307 171.896 235.373 172.806 235.373 173.929C235.373 175.051 236.307 175.962 237.46 175.962Z" fill="#5222D0"/>
<path d="M284.834 29.5053C285.602 29.5053 286.225 28.8945 286.225 28.141C286.225 27.3876 285.602 26.7768 284.834 26.7768C284.066 26.7768 283.443 27.3876 283.443 28.141C283.443 28.8945 284.066 29.5053 284.834 29.5053Z" fill="#5222D0"/>
<path d="M135.168 214.829C136.276 214.829 137.174 213.955 137.174 212.877C137.174 211.798 136.276 210.924 135.168 210.924C134.06 210.924 133.161 211.798 133.161 212.877C133.161 213.955 134.06 214.829 135.168 214.829Z" fill="#5222D0"/>
<path d="M308.213 122.542C308.479 122.542 308.695 122.326 308.695 122.06C308.695 121.794 308.479 121.579 308.213 121.579C307.948 121.579 307.732 121.794 307.732 122.06C307.732 122.326 307.948 122.542 308.213 122.542Z" fill="#5222D0"/>
<path d="M127.758 136.559C129.221 136.559 130.406 135.397 130.406 133.964C130.406 132.531 129.221 131.369 127.758 131.369C126.295 131.369 125.11 132.531 125.11 133.964C125.11 135.397 126.295 136.559 127.758 136.559Z" fill="#EC615B"/>
<path d="M138.083 206.216C138.586 206.216 138.993 205.821 138.993 205.333C138.993 204.845 138.586 204.45 138.083 204.45C137.581 204.45 137.174 204.845 137.174 205.333C137.174 205.821 137.581 206.216 138.083 206.216Z" fill="#EC615B"/>
<path d="M89.2915 61.525C90.3847 61.525 91.271 60.6627 91.271 59.599C91.271 58.5353 90.3847 57.673 89.2915 57.673C88.1982 57.673 87.312 58.5353 87.312 59.599C87.312 60.6627 88.1982 61.525 89.2915 61.525Z" fill="#EC615B"/>
<path d="M291.468 105.261C292.561 105.261 293.447 104.399 293.447 103.335C293.447 102.272 292.561 101.409 291.468 101.409C290.375 101.409 289.488 102.272 289.488 103.335C289.488 104.399 290.375 105.261 291.468 105.261Z" fill="#EC615B"/>
<path d="M299.466 98.0655C300.382 98.0655 301.125 97.3469 301.125 96.4605C301.125 95.5741 300.382 94.8555 299.466 94.8555C298.55 94.8555 297.808 95.5741 297.808 96.4605C297.808 97.3469 298.55 98.0655 299.466 98.0655Z" fill="#EC615B"/>
<path d="M118.904 175.614C116.443 175.667 115.399 179.091 116.202 181.124C116.576 182.061 117.406 182.301 118.342 182.141C118.636 182.087 119.011 181.9 119.332 181.9C120.589 181.98 120.562 182.756 120.188 183.505C119.92 184.04 119.626 184.468 119.492 185.057C119.332 185.806 119.465 186.635 120.241 186.956C120.669 187.143 121.177 186.822 121.552 186.956C122.889 187.384 121.819 189.069 121.712 189.898C121.605 190.808 121.846 191.851 122.729 192.279C123.505 192.654 124.441 192.413 124.842 191.637C125.083 191.182 124.387 190.781 124.147 191.236C123.237 191.958 122.702 191.691 122.488 190.38C122.488 190.005 122.542 189.658 122.649 189.31C122.782 188.721 123.05 188.186 123.103 187.571C123.13 187.143 123.103 186.688 122.782 186.367C122.14 185.779 120.589 186.635 120.241 185.592C120.027 184.95 120.99 183.88 121.177 183.291C121.552 182.141 121.097 180.991 119.733 181.017C118.609 181.044 117.272 182.194 116.871 180.188C116.576 178.797 117.245 176.416 118.957 176.39C119.412 176.39 119.439 175.587 118.904 175.614Z" fill="#EC615B"/>
<path d="M267.981 149.131C265.28 149.185 262.765 151.057 262.123 153.732C261.562 156.06 263.006 158.842 265.654 157.397C266.59 156.889 267.527 155.979 267.687 154.856C267.794 153.973 267.232 153.224 266.296 153.304C264.985 153.411 263.782 154.963 263.086 155.926C262.284 157.023 261.455 158.547 261.588 159.965C261.856 162.399 265.36 162.881 266.59 160.955C266.804 160.634 266.376 160.152 266.029 160.393C264.183 161.811 262.257 164.138 262.979 166.652C263.541 168.632 265.681 170.05 267.687 169.354C268.169 169.194 267.955 168.418 267.473 168.578C265.681 169.194 263.808 167.696 263.648 165.877C263.487 163.924 264.959 162.212 266.43 161.089C266.243 160.901 266.055 160.714 265.868 160.527C265.333 161.383 264.129 161.57 263.247 161.115C261.989 160.447 262.337 159.002 262.819 157.932C263.22 157.023 263.808 156.193 264.477 155.471C264.745 155.177 265.44 154.374 265.815 154.321C266.162 154.401 266.537 154.508 266.885 154.588C266.858 154.936 266.751 155.23 266.564 155.525C265.841 156.702 264.022 157.638 263.033 156.274C262.364 155.391 262.792 153.732 263.247 152.85C264.156 151.084 265.975 149.961 267.928 149.934C268.49 149.907 268.49 149.105 267.981 149.131Z" fill="#EC615B"/>
<path d="M57.887 108.605C58.743 107.562 60.2142 107.909 60.6422 109.113C60.9097 109.835 60.883 110.451 61.5517 110.959C62.7555 111.868 64.3605 111.173 65.6445 110.905C68.9882 110.237 67.8915 113.58 69.7907 114.891C70.62 115.48 71.8772 115.319 72.3052 114.356C72.5192 113.901 71.8237 113.473 71.6097 113.955C70.9142 115.506 69.6302 113.5 69.4162 112.885C69.2825 112.51 69.2022 112.136 69.0417 111.788C68.801 111.226 68.48 110.691 67.945 110.344C66.447 109.407 64.7885 110.558 63.2637 110.584C61.632 110.638 61.7925 109.514 61.2307 108.418C60.99 107.936 60.5887 107.588 60.0805 107.374C59.0907 107 57.9672 107.214 57.3252 108.043C56.9775 108.444 57.566 109.006 57.887 108.605Z" fill="#EC615B"/>
<path d="M60.7492 116.175C62.4345 114.356 64.8687 115.212 65.8585 117.192C66.4737 118.422 66.9017 119.76 68.2392 120.375C70.2722 121.311 72.9205 120.268 73.616 118.155C73.7765 117.673 73.0007 117.459 72.8402 117.941C72.332 119.492 70.4595 120.241 68.9615 119.787C67.1157 119.252 66.982 117.138 65.9655 115.801C64.5745 113.955 61.739 113.928 60.1875 115.614C59.8397 115.988 60.4015 116.55 60.7492 116.175Z" fill="#EC615B"/>
<path d="M250.594 233.635C251.584 232.484 252.921 232.511 254.125 233.314C254.526 233.581 254.927 233.849 255.436 233.661C256.078 233.421 256.185 232.565 256.639 232.137C257.576 231.254 259.127 231.254 260.09 232.056C260.491 232.377 261.053 231.816 260.652 231.495C259.207 230.291 256.827 230.398 255.676 232.003C255.569 232.163 255.436 232.591 255.302 232.672C254.687 233.073 254.446 232.458 254.045 232.297C253.617 232.137 253.215 231.949 252.761 231.923C251.691 231.842 250.701 232.27 250.005 233.073C249.711 233.447 250.273 234.009 250.594 233.635Z" fill="#5222D0"/>
<path d="M258.432 234.999C260.251 232.297 266.831 235.962 267.5 231.628C267.58 231.12 266.805 230.906 266.724 231.414C266.377 233.688 263.22 233.153 261.615 233.1C260.117 233.073 258.619 233.287 257.736 234.598C257.442 235.026 258.137 235.427 258.432 234.999Z" fill="#5222D0"/>
<path d="M116.657 246.234C117.7 244.441 119.091 242.944 120.803 241.793C121.231 241.499 120.83 240.804 120.402 241.098C118.583 242.355 117.085 243.933 115.961 245.832C115.694 246.26 116.389 246.662 116.657 246.234Z" fill="#5222D0"/>
<path d="M120.455 244.95C121.873 243.987 123.291 242.997 124.708 242.034C125.136 241.74 124.735 241.044 124.307 241.338C122.889 242.301 121.472 243.291 120.054 244.254C119.626 244.548 120.027 245.244 120.455 244.95Z" fill="#5222D0"/>
<path d="M119.519 16.906C119.278 37.664 113.928 58.2615 104.111 76.5585C101.356 81.7212 98.226 86.67 94.802 91.4047C94.5077 91.8327 95.2032 92.234 95.4975 91.806C107.749 74.8732 115.854 55.0247 118.93 34.3202C119.786 28.5422 120.241 22.7107 120.321 16.8792C120.348 16.3977 119.546 16.3977 119.519 16.906Z" fill="#E8E8E8"/>
<path d="M122.863 17.7887C135.917 25.787 152.074 28.248 166.974 24.9042C171.2 23.968 175.293 22.5235 179.172 20.6777C179.626 20.4637 179.225 19.7682 178.77 19.9822C165.208 26.4557 149.185 27.2582 134.954 22.5502C130.861 21.186 126.929 19.367 123.264 17.12C122.836 16.8257 122.435 17.5212 122.863 17.7887Z" fill="#E8E8E8"/>
<path d="M185.805 20.4905C191.503 29.532 200.571 36.2195 210.79 39.269C223.122 42.9605 236.416 40.5262 248.561 37.2627C255.329 35.4437 261.936 32.956 267.821 29.1575C268.249 28.89 267.848 28.1945 267.42 28.462C262.23 31.779 256.532 34.1062 250.647 35.845C244.495 37.6372 238.128 39.0282 231.762 39.804C225.636 40.553 219.403 40.553 213.385 39.1352C208.302 37.9315 203.434 35.7915 199.073 32.9025C194.045 29.5587 189.738 25.1985 186.501 20.0892C186.234 19.6612 185.538 20.0625 185.805 20.4905Z" fill="#E8E8E8"/>
<path d="M270.978 29.6925C269.105 39.911 267.661 50.611 268.169 61.0167C268.57 69.55 270.897 78.4577 277.852 83.9682C281.999 87.2585 287.054 89.0775 292.003 90.843C292.485 91.0302 292.699 90.2545 292.217 90.0672C287.857 88.489 283.39 86.9107 279.564 84.2357C275.9 81.6945 273.198 78.1367 271.513 74.0172C268.222 65.9387 268.65 56.7635 269.319 48.2302C269.801 42.0777 270.63 35.952 271.727 29.8797C271.834 29.3982 271.058 29.1842 270.978 29.6925Z" fill="#E8E8E8"/>
<path d="M96.8618 96.3803C116.817 99.51 135.221 110.932 146.965 127.384C150.255 132.011 153.01 137.014 155.097 142.283C155.284 142.765 156.06 142.551 155.872 142.069C148.382 123.184 132.734 108.097 114.035 100.366C108.578 98.119 102.881 96.514 97.0757 95.6045C96.5675 95.5243 96.3535 96.3 96.8618 96.3803Z" fill="#E8E8E8"/>
<path d="M160.259 142.952C169.702 135.623 182.221 133.804 193.804 135.516C206.162 137.334 217.37 143.273 227.482 150.388C233.581 154.668 239.332 159.403 245.083 164.138C245.485 164.459 246.046 163.897 245.645 163.576C235.266 155.016 224.727 146.349 212.502 140.545C201.588 135.355 189.283 132.76 177.245 134.82C170.879 135.917 164.833 138.405 159.697 142.363C159.296 142.711 159.858 143.273 160.259 142.952Z" fill="#E8E8E8"/>
<path d="M244.736 159.189C249.337 139.314 261.883 121.659 278.682 110.183C283.497 106.893 288.659 104.111 294.063 101.917C294.544 101.73 294.33 100.954 293.849 101.142C274.696 108.953 258.673 123.959 249.711 142.604C247.197 147.847 245.271 153.331 243.96 158.975C243.853 159.483 244.629 159.697 244.736 159.189Z" fill="#E8E8E8"/>
<path d="M124.066 111.628C128.079 113.34 131.102 116.737 133.964 119.92C136.933 123.21 139.662 126.715 142.176 130.379C147.045 137.522 150.924 145.279 153.706 153.465C153.866 153.946 154.642 153.732 154.481 153.251C151.619 144.878 147.606 136.906 142.604 129.604C140.143 126.019 137.441 122.595 134.526 119.358C131.61 116.148 128.534 112.671 124.468 110.959C124.013 110.718 123.585 111.414 124.066 111.628Z" fill="#161616"/>
<path d="M184.95 24.7705C189.363 31.886 196.291 37.1022 204.263 39.5632C204.771 39.7237 204.959 38.948 204.477 38.7875C196.693 36.4067 189.925 31.2975 185.645 24.3692C185.378 23.9145 184.682 24.3425 184.95 24.7705Z" fill="#161616"/>
<path d="M120.001 11.2082C128.561 17.013 139.394 18.8855 149.426 16.478C149.934 16.3442 149.72 15.5952 149.212 15.7022C139.368 18.083 128.775 16.1837 120.402 10.5127C119.974 10.2452 119.573 10.9407 120.001 11.2082Z" fill="#161616"/>
<path d="M91.6455 86.1617C95.9255 81.4269 99.6438 76.2374 102.72 70.6467C102.961 70.192 102.265 69.7907 102.024 70.2455C98.975 75.7827 95.3103 80.9187 91.0838 85.5999C90.736 85.9744 91.2978 86.5362 91.6455 86.1617Z" fill="#161616"/>
<path d="M117.62 54.8107C117.245 58.6092 115.239 62.1937 113.688 65.6177C112.083 69.122 110.424 72.5727 108.739 76.0235C108.498 76.4782 109.194 76.8795 109.434 76.4247C111.307 72.6797 113.099 68.8812 114.838 65.056C116.336 61.7657 118.101 58.422 118.449 54.784C118.476 54.3025 117.673 54.3025 117.62 54.8107Z" fill="#161616"/>
<path d="M242.168 145.119C246.367 134.285 253.135 124.575 261.802 116.844C262.177 116.496 261.615 115.935 261.24 116.282C252.466 124.12 245.645 133.937 241.392 144.905C241.205 145.386 241.98 145.574 242.168 145.119Z" fill="#161616"/>
<path d="M116.309 22.577C115.854 25.4392 115.373 28.3015 114.918 31.1637C114.838 31.672 115.614 31.886 115.694 31.3777C116.149 28.5155 116.63 25.6532 117.085 22.791C117.165 22.2827 116.389 22.0687 116.309 22.577Z" fill="#EC615B"/>
<path d="M184.735 13.4552C190.513 20.3567 197.683 25.9742 205.761 29.9332C206.216 30.1472 206.617 29.4785 206.162 29.2377C198.137 25.3055 191.022 19.7415 185.297 12.8935C184.976 12.4922 184.414 13.054 184.735 13.4552Z" fill="#EC615B"/>
<path d="M232.11 44.619C238.851 44.94 245.565 43.6292 251.664 40.7402C252.119 40.5262 251.717 39.8307 251.263 40.0447C245.271 42.8535 238.717 44.1375 232.11 43.8165C231.575 43.7897 231.602 44.5922 232.11 44.619Z" fill="#EC615B"/>
<path d="M255.998 32.3675C261.695 29.5855 266.831 25.8405 271.218 21.2395C271.566 20.865 271.004 20.3033 270.656 20.6778C266.323 25.2253 261.241 28.9168 255.596 31.672C255.142 31.886 255.543 32.5815 255.998 32.3675Z" fill="#EC615B"/>
<path d="M161.891 137.816C168.632 130.727 178.904 127.464 188.534 129.176C189.042 129.256 189.256 128.48 188.748 128.4C178.824 126.634 168.284 129.925 161.329 137.254C160.955 137.602 161.517 138.19 161.891 137.816Z" fill="#EC615B"/>
<path d="M102.265 93.0365C107.936 94.2135 113.393 96.1128 118.556 98.7343C119.011 98.975 119.412 98.2795 118.957 98.0388C113.741 95.3905 108.204 93.4378 102.479 92.2608C101.971 92.1538 101.757 92.9295 102.265 93.0365Z" fill="#5222D0"/>
<path d="M123.318 27.8468C123.638 30.9765 123.692 34.133 123.505 37.2628C123.478 37.771 124.28 37.771 124.307 37.2628C124.494 34.1063 124.414 30.9765 124.12 27.8468C124.066 27.3385 123.264 27.3385 123.318 27.8468Z" fill="#5222D0"/>
<path d="M227.803 135.542C230.96 129.39 236.069 124.494 242.275 121.472C242.729 121.258 242.328 120.562 241.873 120.776C235.534 123.852 230.318 128.881 227.108 135.141C226.867 135.596 227.562 136.024 227.803 135.542Z" fill="#5222D0"/>
<path d="M211.057 77.8693C213.412 76.2375 216.14 75.4885 219.002 75.649C219.511 75.6758 219.511 74.8733 219.002 74.8465C216.006 74.686 213.117 75.4885 210.656 77.2005C210.228 77.468 210.629 78.1635 211.057 77.8693Z" fill="#EC615B"/>
<path d="M217.558 70.6468C219.885 71.1283 222.132 71.797 224.325 72.6798C224.807 72.867 225.021 72.0913 224.54 71.904C222.346 71.0213 220.099 70.3525 217.772 69.871C217.264 69.764 217.05 70.5398 217.558 70.6468Z" fill="#EC615B"/>
<path d="M159.243 50.0225C160.072 46.2775 161.971 42.9338 164.7 40.232C165.074 39.8575 164.512 39.2958 164.138 39.6703C161.303 42.4523 159.323 45.9298 158.467 49.8085C158.333 50.3168 159.109 50.5308 159.243 50.0225Z" fill="#EC615B"/>
<path d="M165.128 50.8785C169.114 47.7755 173.608 45.4483 178.449 43.9503C178.931 43.7898 178.744 43.014 178.235 43.1745C173.26 44.6993 168.659 47.1068 164.566 50.29C164.165 50.6378 164.727 51.1995 165.128 50.8785Z" fill="#EC615B"/>
<path d="M157.076 103.79C158.066 106.358 158.173 109.033 157.424 111.681C157.29 112.189 158.066 112.403 158.2 111.895C159.002 109.113 158.868 106.278 157.852 103.576C157.665 103.094 156.889 103.308 157.076 103.79Z" fill="#5222D0"/>
<path d="M163.924 104.673C165.342 106.385 167.107 107.776 169.087 108.765C169.541 109.006 169.943 108.311 169.488 108.07C167.535 107.107 165.85 105.769 164.486 104.084C164.165 103.71 163.603 104.271 163.924 104.673Z" fill="#5222D0"/>
<path d="M251.156 99.403C252.36 100.74 252.894 102.479 252.6 104.271C252.52 104.78 253.296 104.994 253.376 104.485C253.724 102.399 253.135 100.393 251.718 98.8412C251.37 98.44 250.808 99.0017 251.156 99.403Z" fill="#5222D0"/>
<path d="M257.816 98.1725C258.806 99.296 259.769 100.393 260.759 101.516C261.107 101.918 261.669 101.329 261.321 100.955C260.331 99.831 259.368 98.7343 258.378 97.6108C258.057 97.2095 257.495 97.7713 257.816 98.1725Z" fill="#5222D0"/>
<path d="M219.002 107.749C220.848 104.512 223.282 101.703 226.252 99.4565C226.653 99.1355 226.252 98.44 225.85 98.761C222.774 101.115 220.233 103.977 218.307 107.348C218.066 107.802 218.762 108.204 219.002 107.749Z" fill="#5222D0"/>
<path d="M316.051 49.9155C318.208 49.9155 319.957 48.2148 319.957 46.117C319.957 44.0191 318.208 42.3185 316.051 42.3185C313.894 42.3185 312.146 44.0191 312.146 46.117C312.146 48.2148 313.894 49.9155 316.051 49.9155Z" fill="#EC615B"/>
<path d="M323.247 58.5022C325.064 58.5022 326.537 57.0771 326.537 55.319C326.537 53.5609 325.064 52.1357 323.247 52.1357C321.43 52.1357 319.957 53.5609 319.957 55.319C319.957 57.0771 321.43 58.5022 323.247 58.5022Z" fill="#5222D0"/>
<path d="M125.885 76.5585C126.26 78.5112 126.715 80.571 127.303 82.711C129.256 89.6927 132.038 95.5242 134.793 100.179C135.596 100.366 136.746 100.633 138.164 100.794C140.116 101.035 143.273 101.436 146.831 100.419C147.687 100.179 147.312 100.205 151.084 98.654C154.856 97.1025 155.07 97.156 156.514 96.514C158.975 95.444 161.195 93.8925 165.556 90.8697C166.813 89.987 168.552 88.7565 170.585 87.2317C170.718 86.3757 170.879 85.1185 170.852 83.5937C170.799 81.1862 170.29 79.4475 169.568 76.933C168.418 73.0007 167.615 70.3257 167.107 68.6405C166.091 67.9985 164.994 67.3565 163.737 66.768C159.59 64.7617 155.658 63.9592 152.635 63.6382C149.532 63.879 147.071 64.4407 145.413 64.8955C138.137 66.9017 133.135 70.6735 130.032 73.0542C128.186 74.4452 126.768 75.7025 125.885 76.5585Z" fill="white"/>
<path d="M238.931 66.7412C236.791 69.0417 234.517 71.797 232.351 75.0337C231.281 76.6387 230.344 78.1902 229.515 79.6882C231.147 82.1225 232.779 84.5567 234.437 86.9642C238.102 88.382 241.767 89.7997 245.431 91.2442C248.909 87.6062 252.413 83.9682 255.891 80.3035C254.981 77.361 254.072 74.4452 253.189 71.5027C251.397 70.5932 249.337 69.6837 246.983 68.8545C243.987 67.838 241.285 67.1692 238.931 66.7412Z" fill="white"/>
<path d="M125.618 76.7992C126.528 85.4127 130.326 93.2505 134.446 100.767C134.686 101.222 135.382 100.821 135.141 100.366C131.102 93.0097 127.303 85.279 126.421 76.7992C126.367 76.291 125.565 76.2642 125.618 76.7992Z" fill="#161616"/>
<path d="M126.367 77.0132C132.921 69.871 141.909 65.2432 151.512 63.986C152.02 63.9325 152.02 63.13 151.512 63.1835C141.695 64.4675 132.493 69.122 125.778 76.4247C125.457 76.826 126.019 77.3877 126.367 77.0132Z" fill="#161616"/>
<path d="M151.566 63.879C155.926 70.4327 157.959 78.0565 159.912 85.5732C160.045 86.0815 160.821 85.8675 160.687 85.3592C158.708 77.7622 156.648 70.085 152.261 63.4777C151.967 63.0497 151.271 63.451 151.566 63.879Z" fill="#161616"/>
<path d="M135.382 100.74C140.277 99.2692 144.985 97.3165 149.479 94.8822C151.699 93.6785 153.839 92.3409 155.926 90.8964C157.798 89.6124 159.751 88.275 160.768 86.1885C161.008 85.7337 160.313 85.3324 160.072 85.7872C158.975 88.0075 156.728 89.3985 154.749 90.736C152.796 92.0467 150.763 93.2772 148.677 94.4007C144.37 96.7012 139.849 98.547 135.194 99.9647C134.686 100.125 134.9 100.901 135.382 100.74Z" fill="#161616"/>
<path d="M151.993 63.9325C157.29 64.1465 162.372 65.912 166.652 69.0685C167.08 69.3627 167.482 68.6672 167.054 68.373C162.667 65.1362 157.45 63.344 151.993 63.13C151.485 63.1032 151.485 63.9057 151.993 63.9325Z" fill="#161616"/>
<path d="M166.599 68.7207C169.033 74.3115 170.317 80.3035 170.344 86.4292C170.344 86.9375 171.146 86.9375 171.146 86.4292C171.093 80.1697 169.782 74.044 167.268 68.3195C167.08 67.838 166.412 68.2392 166.599 68.7207Z" fill="#161616"/>
<path d="M160.259 86.2687C163.576 88.4087 167.508 87.8202 171.12 86.8572C171.628 86.7235 171.414 85.9477 170.906 86.0815C167.508 86.991 163.817 87.5795 160.687 85.5732C160.233 85.3057 159.831 86.0012 160.259 86.2687Z" fill="#161616"/>
<path d="M134.954 100.874C139.715 101.944 144.664 101.597 149.211 99.8043C149.693 99.617 149.479 98.8413 148.997 99.0285C144.584 100.767 139.795 101.169 135.168 100.099C134.66 99.9915 134.446 100.767 134.954 100.874Z" fill="#161616"/>
<path d="M149.426 99.7507C157.37 96.7547 164.753 92.448 171.227 86.9375C171.628 86.5897 171.039 86.028 170.665 86.3757C164.298 91.7792 157.049 96.0325 149.238 98.975C148.73 99.1622 148.944 99.938 149.426 99.7507Z" fill="#161616"/>
<path d="M238.316 66.661C234.919 70.6735 231.816 74.9267 229.034 79.3672C228.766 79.7952 229.462 80.1965 229.729 79.7685C232.484 75.3815 235.561 71.1817 238.878 67.2227C239.225 66.8482 238.664 66.2597 238.316 66.661Z" fill="#161616"/>
<path d="M238.69 67.3565C243.505 68.1323 248.133 69.657 252.44 71.8773C252.895 72.118 253.296 71.4225 252.841 71.1818C248.454 68.908 243.773 67.3833 238.877 66.5808C238.396 66.5005 238.182 67.2763 238.69 67.3565Z" fill="#161616"/>
<path d="M229.06 80.2232C233.233 82.1225 237.353 84.102 241.445 86.1885C241.9 86.4292 242.301 85.7337 241.847 85.493C237.754 83.4332 233.634 81.4537 229.462 79.5277C228.98 79.3137 228.579 80.0092 229.06 80.2232Z" fill="#161616"/>
<path d="M252.654 71.5027C249.069 76.2909 245.592 81.1594 242.221 86.1082C242.409 86.0547 242.596 86.0012 242.783 85.9745C242.489 85.814 242.195 85.6267 241.874 85.4662C241.419 85.1987 241.018 85.8942 241.472 86.1617C241.767 86.3222 242.061 86.5095 242.382 86.67C242.569 86.777 242.81 86.6967 242.944 86.5362C246.287 81.5875 249.765 76.6922 253.376 71.9307C253.643 71.5027 252.948 71.1014 252.654 71.5027Z" fill="#161616"/>
<path d="M252.574 71.9575C253.777 74.7662 254.66 77.6552 255.249 80.6512C255.356 81.1595 256.131 80.9455 256.024 80.4373C255.436 77.3878 254.5 74.4185 253.269 71.5562C253.082 71.1015 252.386 71.5027 252.574 71.9575Z" fill="#161616"/>
<path d="M242.489 86.7235C243.532 88.1145 244.441 89.559 245.244 91.1105C245.485 91.5652 246.18 91.164 245.939 90.7092C245.137 89.1577 244.227 87.7132 243.184 86.3222C242.89 85.921 242.194 86.3222 242.489 86.7235Z" fill="#161616"/>
<path d="M245.939 91.057C249.417 87.847 252.68 84.4765 255.784 80.9187C256.131 80.5175 255.543 79.9557 255.222 80.357C252.119 83.9147 248.855 87.312 245.378 90.4952C245.003 90.843 245.565 91.4047 245.939 91.057Z" fill="#161616"/>
<path d="M229.141 80.4372C230.852 82.6575 232.564 84.9045 234.276 87.1247C234.597 87.526 235.293 87.1247 234.972 86.7235C233.26 84.5032 231.548 82.2562 229.836 80.036C229.515 79.6347 228.82 80.0092 229.141 80.4372Z" fill="#161616"/>
<path d="M234.437 87.419C238.021 88.7833 241.606 90.1475 245.19 91.5118C245.672 91.699 245.886 90.9233 245.404 90.736C241.82 89.3718 238.235 88.0075 234.651 86.6433C234.169 86.456 233.956 87.2318 234.437 87.419Z" fill="#161616"/>
<path d="M134.071 69.5768C137.468 78.5648 140.892 87.5528 144.289 96.5675C146.831 97.2898 149.399 97.9853 151.94 98.7075C153.839 97.8515 155.738 96.9688 157.638 96.1128C155.471 95.1765 153.304 94.2403 151.137 93.304C147.66 84.209 144.182 75.0872 140.705 65.9922C139.742 66.4202 138.725 66.9017 137.682 67.4635C136.318 68.1322 135.141 68.8813 134.071 69.5768Z" fill="#EC615B"/>
<path d="M158.547 64.2802C160.741 68.2392 163.122 73.7765 164.111 80.6512C164.432 82.8982 164.566 85.0382 164.566 86.9642C160.313 90.2277 155.123 93.6785 148.89 96.8885C145.413 98.6807 142.043 100.179 138.913 101.409C140.652 101.409 142.39 101.409 144.129 101.409C147.847 99.8577 151.967 97.905 156.327 95.4172C161.062 92.7155 165.128 89.9067 168.525 87.2852C167.883 84.0752 167.188 80.785 166.439 77.468C165.609 73.8032 164.753 70.2455 163.897 66.7412C163.416 66.2597 162.613 65.591 161.463 65.056C160.286 64.521 159.243 64.3337 158.547 64.2802Z" fill="#EC615B"/>
<path d="M137.308 67.5437C136.719 67.0622 137.495 64.1732 139.635 63.2637C141.267 62.5682 143.38 63.13 144.851 64.735C144.022 64.9757 142.765 65.3502 141.267 65.9655C138.592 67.0622 137.709 67.8647 137.308 67.5437Z" fill="#EC615B"/>
<path d="M141.026 64.735C142.283 63.9325 144.102 62.5415 145.68 60.3212C148.382 56.496 148.596 52.5905 148.569 50.9587C149.024 50.825 151.726 49.9957 153.224 51.3065C155.257 53.072 153.384 57.2985 152.983 58.1812C151.806 60.8295 149.88 62.274 149.265 62.702C145.841 65.1095 142.096 64.842 141.026 64.735Z" fill="#EC615B"/>
<path d="M127.33 57.6195C128.667 57.4055 129.417 59.7863 132.199 62.1403C134.686 64.2268 137.468 65.163 139.635 65.6445C138.726 66.34 137.014 67.4903 134.633 67.7845C131.182 68.2125 126.474 66.9018 125.35 63.6115C124.521 61.1238 125.832 57.8335 127.33 57.6195Z" fill="#EC615B"/>
<path d="M243.853 67.7577C240.402 72.3587 236.925 76.9597 233.474 81.5607C234.705 83.8077 235.935 86.0547 237.192 88.3017C238.262 88.7297 239.332 89.1845 240.402 89.6124C239.627 87.74 238.851 85.8407 238.048 83.9682C241.125 78.9124 244.228 73.8834 247.304 68.8277C246.154 68.4799 245.003 68.1322 243.853 67.7577Z" fill="#5222D0"/>
<path d="M254.339 75.1942C250.808 79.1265 247.25 83.032 243.719 86.9642C239.6 85.7605 235.48 84.5567 231.361 83.353C232.056 84.2357 232.752 85.1185 233.447 86.0012C237.326 87.2852 241.178 88.5692 245.057 89.8532C248.4 86.0815 251.717 82.3365 255.061 78.5647C254.847 77.4412 254.606 76.3177 254.339 75.1942Z" fill="#5222D0"/>
<path d="M247.304 68.7207C247.438 68.1589 249.417 67.5972 250.755 68.6137C251.611 69.2557 252.119 70.5129 251.744 70.8874C251.049 71.5829 247.117 69.5767 247.304 68.7207Z" fill="#5222D0"/>
<path d="M245.217 60.0805C245.806 59.7595 246.983 60.776 247.304 61.0435C247.625 61.311 248.748 62.3275 249.524 65.2432C249.925 66.7145 250.514 68.908 249.899 69.2022C249.203 69.55 247.09 67.3565 245.939 65.0025C245.057 63.13 244.441 60.5085 245.217 60.0805Z" fill="#5222D0"/>
<path d="M260.732 69.5768C260.786 68.9348 259.341 68.4265 258.94 68.2928C258.566 68.159 257.148 67.7043 254.125 68.373C252.6 68.7208 250.353 69.229 250.326 69.871C250.3 70.62 253.242 71.3423 255.89 71.2085C258.004 71.1015 260.652 70.406 260.732 69.5768Z" fill="#5222D0"/>
<path opacity="0.09" d="M135.168 100.633C136.746 100.072 139.073 99.2425 141.855 98.0655C146.59 96.086 149.934 94.695 153.652 92.1805C155.498 90.9232 157.986 88.9972 160.634 86.1885C161.945 83.567 163.55 79.6615 164.165 74.686C164.539 71.6632 164.486 68.9882 164.272 66.8215C165.235 67.3832 166.171 67.945 167.134 68.48C168.097 70.9945 169.087 74.0707 169.782 77.6285C170.478 81.0792 170.772 84.209 170.852 86.8572C167.963 89.3717 165.395 91.2442 163.469 92.555C154.187 98.8947 147.794 100.393 146.376 100.714C144.183 101.195 142.497 101.275 141.748 101.302C138.94 101.409 136.666 100.981 135.168 100.633Z" fill="#353535"/>
<path opacity="0.09" d="M229.595 79.7952C231.307 82.2295 232.992 84.6637 234.704 87.0712C238.262 88.4622 241.847 89.8265 245.405 91.2175C248.802 87.526 252.199 83.8612 255.596 80.1697C254.767 77.3342 253.911 74.4987 253.082 71.6632C249.604 76.3712 246.127 81.0792 242.649 85.7872C238.289 83.8077 233.929 81.8015 229.595 79.7952Z" fill="#353535"/>
<path d="M185.672 285.61C186.742 284.272 187.384 283.657 187.624 283.818C188.24 284.192 186.046 289.596 181.017 300.055C168.685 300.643 162.426 300.349 162.265 299.145C162.132 298.102 166.706 296.363 175.988 293.956C178.021 289.649 180.054 285.342 182.087 281.036C183.291 282.56 184.468 284.085 185.672 285.61Z" fill="black"/>
<path d="M191.931 200.331C190.915 207.527 189.738 214.856 188.454 222.293C184.655 244.12 180.027 264.798 174.865 284.245C175.614 285.075 177.566 286.974 180.776 287.857C184.816 288.953 188.159 287.75 189.122 287.375C195.168 266.243 201.187 245.084 207.232 223.951C215.177 215.284 213.652 204.076 207.58 200.01C203.567 197.335 197.361 197.709 191.931 200.331Z" fill="#EC615B"/>
<path opacity="0.15" d="M192.252 200.785C193.028 200.866 192.546 212.876 191.931 223.683C190.54 248.213 185.966 269.747 180.536 287.696C179.947 287.536 179.252 287.295 178.556 286.947C176.844 286.091 175.694 284.968 175.025 284.165C176.657 278.334 179.011 269.56 181.445 258.806C189.069 225.128 191.155 200.705 192.252 200.785Z" fill="#353535"/>
<path opacity="0.13" d="M187.731 228.846C187.143 235.908 186.287 243.345 185.083 251.102C183.13 263.862 180.536 275.579 177.673 286.198C177.352 286.145 176.871 286.011 176.336 285.663C175.614 285.182 175.266 284.567 175.132 284.272C177.272 275.365 179.359 266.377 181.445 257.308C183.612 247.732 185.698 238.236 187.731 228.846Z" fill="#353535"/>
<path d="M236.898 284.807C235.721 283.47 234.999 282.854 234.731 283.015C234.063 283.389 236.47 288.793 241.98 299.252C255.543 299.841 262.391 299.547 262.578 298.343C262.738 297.3 257.709 295.561 247.491 293.153C245.244 288.847 243.024 284.54 240.777 280.233C239.493 281.758 238.209 283.282 236.898 284.807Z" fill="black"/>
<path d="M202.203 206.724C201.213 211.486 203.46 215.418 204.29 216.729C213.117 240.322 221.918 263.942 230.745 287.536C232.243 287.75 235.346 287.964 238.931 286.707C242.97 285.289 245.324 282.748 246.234 281.624C240.964 270.389 237.647 260.973 235.614 254.58C230.291 237.861 223.122 221.704 218.039 204.905C217.183 202.096 215.739 197.174 212.475 196.559C208.677 195.864 203.353 201.107 202.203 206.724Z" fill="#EC615B"/>
<path opacity="0.1" d="M210.496 196.719C208.65 198.057 212.074 205.199 213.706 208.757C217.638 217.344 219.671 226.679 223.443 235.346C227.509 244.682 233.474 259.796 241.9 285.155C242.489 284.861 243.238 284.459 243.987 283.844C244.976 283.042 245.645 282.212 246.073 281.57C243.96 276.996 240.91 270.068 237.7 261.428C236.55 258.351 236.416 257.79 235.159 253.938C233.822 249.845 231.735 243.639 231.307 242.382C229.301 236.604 229.301 237.379 225.529 227.134C224.727 224.967 223.63 221.971 222.319 218.066C221.677 216.167 221.196 214.642 220.848 213.545C220.795 213.385 219.029 207.901 216.541 201.401C215.899 199.689 215.204 198.003 213.465 197.121C213.358 197.04 211.405 196.051 210.496 196.719Z" fill="#353535"/>
<path opacity="0.12" d="M223.55 221.624C223.389 221.677 226.974 232.832 244.12 283.71C244.816 283.042 245.511 282.373 246.207 281.677C245.164 279.35 243.532 275.659 241.659 271.058C237.353 260.545 235.507 254.419 230.692 240.91C228.017 233.394 223.71 221.57 223.55 221.624Z" fill="#353535"/>
<path d="M231.12 122.007C230.505 122.06 230.077 120.241 229.408 120.268C228.873 120.295 228.498 121.498 228.472 121.659C228.151 122.756 228.311 123.879 229.408 126.822C229.729 127.678 230.157 128.774 230.719 130.032C230.424 132.118 229.889 135.007 228.926 138.404C227.723 142.604 225.69 149.506 220.313 156.621C218.654 158.815 216.167 161.73 212.555 164.726C211.352 167.615 211.191 170.023 211.245 171.521C211.271 172.404 211.378 176.389 212.85 176.764C213.839 177.005 215.016 175.56 215.605 174.838C221.597 167.268 224.62 163.496 225.823 161.302C228.632 156.273 230.906 152.181 232.832 146.028C234.25 141.534 234.918 137.602 235.293 134.713C235.908 133.696 236.764 132.252 237.754 130.486C240.456 125.671 241.419 123.505 242.007 121.097C242.622 118.609 242.729 116.469 242.114 116.229C241.659 116.068 241.098 116.897 240.589 116.683C239.84 116.362 240.643 114.142 239.84 113.661C239.546 113.473 238.958 113.5 237.754 114.303C236.925 112.564 236.39 112.243 236.042 112.27C235.32 112.377 234.972 114.356 234.811 116.603C234.597 115.506 234.062 113.206 233.394 113.206C232.832 113.206 232.243 114.891 232.083 116.229C231.842 118.074 232.377 119.412 231.708 121.284C231.575 121.552 231.387 121.953 231.12 122.007Z" fill="white"/>
<path d="M230.184 129.684C230.103 133.215 228.98 136.612 227.91 139.956C226.867 143.113 225.69 146.242 224.245 149.238C221.57 154.802 217.959 159.885 213.224 163.87C212.823 164.191 213.411 164.78 213.786 164.432C218.708 160.313 222.399 154.989 225.128 149.211C226.546 146.215 227.723 143.113 228.739 139.956C229.809 136.639 230.906 133.242 230.959 129.711C231.013 129.176 230.21 129.176 230.184 129.684Z" fill="#161616"/>
<path d="M234.945 134.339C234.223 142.792 230.531 150.736 226.786 158.226C223.362 165.074 219.216 171.735 213.037 176.416C212.636 176.737 213.037 177.433 213.438 177.112C219.751 172.324 224.004 165.609 227.482 158.628C231.307 151.004 234.999 142.925 235.748 134.339C235.774 133.83 234.972 133.83 234.945 134.339Z" fill="#161616"/>
<path d="M230.853 129.256C229.943 127.303 229.087 125.029 228.953 122.863C228.927 122.568 228.873 121.311 229.087 121.151C229.756 120.696 229.943 121.472 230.104 121.793C230.398 122.354 230.612 122.756 231.174 123.077C231.628 123.317 232.03 122.649 231.575 122.381C230.639 121.846 230.719 120.375 229.649 119.974C228.739 119.626 228.418 120.375 228.231 121.151C227.589 123.906 228.98 127.196 230.104 129.657C230.398 130.139 231.067 129.711 230.853 129.256Z" fill="#161616"/>
<path d="M231.762 122.836C232.672 120.75 232.457 118.61 232.538 116.389C232.564 115.881 232.457 114.704 232.752 114.303C233.287 113.634 233.688 115.052 233.822 115.507C234.196 116.951 234.276 118.396 234.169 119.867C234.116 120.375 234.918 120.375 234.972 119.867C235.052 118.85 234.945 111.762 232.671 112.912C231.735 113.393 231.789 115.293 231.762 116.122C231.682 118.235 231.976 120.402 231.093 122.408C230.879 122.89 231.575 123.318 231.762 122.836Z" fill="#161616"/>
<path d="M235.052 119.92C235.213 118.957 235.346 117.994 235.427 117.004C235.507 115.908 235.346 114.677 235.694 113.634C235.988 112.671 236.149 112.484 236.55 113.34C236.844 113.955 236.951 114.597 237.032 115.239C237.165 116.443 237.272 117.86 236.898 119.038C236.737 119.546 237.513 119.733 237.674 119.251C238.102 117.834 237.995 116.095 237.754 114.65C237.62 113.875 237.192 111.842 236.149 111.842C235.239 111.842 234.865 113.366 234.785 114.008C234.517 115.881 234.571 117.807 234.276 119.68C234.196 120.215 234.972 120.429 235.052 119.92Z" fill="#161616"/>
<path d="M237.968 119.225C238.075 118.395 238.075 117.539 238.075 116.71C238.102 115.988 238.048 114.062 238.958 114.142C239.626 114.196 239.573 114.757 239.626 115.346C239.653 115.747 239.653 116.175 239.653 116.576C239.653 117.566 239.6 118.529 239.412 119.519C239.305 120.027 240.081 120.241 240.188 119.733C240.456 118.422 241.365 113.045 238.958 112.992C236.737 112.938 237.326 118.021 237.165 119.251C237.112 119.733 237.914 119.733 237.968 119.225Z" fill="#161616"/>
<path d="M240.83 116.871C241.151 116.844 241.445 116.817 241.766 116.79C241.82 117.031 241.873 117.272 241.9 117.539C241.954 118.021 241.98 118.476 241.98 118.957C241.954 119.813 241.82 120.696 241.579 121.525C241.151 123.157 240.429 124.708 239.626 126.206C238.155 128.988 236.577 131.744 235.052 134.499C234.811 134.954 235.507 135.355 235.748 134.9C237.032 132.573 238.342 130.246 239.626 127.918C240.83 125.752 242.034 123.478 242.542 121.017C242.81 119.679 243.372 116.603 241.98 115.667C241.098 115.052 239.948 115.881 240.055 116.897C240.081 117.379 240.884 117.379 240.83 116.871Z" fill="#161616"/>
<path opacity="0.08" d="M239.466 113.848C239.065 113.875 238.958 115.533 238.69 117.513C238.262 120.99 237.781 124.896 236.122 128.159C235.587 129.229 234.624 130.807 232.885 132.519C232.618 134.419 232.11 137.147 231.254 140.357C229.756 145.975 227.562 153.946 221.356 161.41C219.671 163.416 217.076 166.198 213.251 168.9C213.144 171.521 213.037 174.116 212.903 176.737C214.562 175.48 216.969 173.474 219.457 170.611C222.721 166.84 224.834 162.56 228.926 154.16C232.19 147.446 233.073 144.851 233.608 142.979C234.624 139.555 235.132 136.585 235.4 134.445C237.219 131.583 238.556 129.042 239.493 127.036C241.124 123.558 243.746 117.941 242.141 116.55C241.686 116.175 241.017 116.202 240.509 116.282C240.268 115.159 239.84 113.821 239.466 113.848Z" fill="#353535"/>
<path opacity="0.1" d="M238.449 129.523C237.032 131.021 235.614 132.546 234.196 134.044C234.062 135.328 233.822 137.227 233.26 139.501C232.19 143.781 230.638 146.777 230.023 148.035C228.445 151.191 226.385 156.006 224.406 163.202C225.288 161.677 229.97 153.545 232.591 146.59C233.581 143.915 234.116 142.524 234.544 140.357C235.079 137.762 234.945 136.559 235.641 134.472C236.416 132.198 237.593 130.54 238.449 129.523Z" fill="#353535"/>
<path d="M164.138 116.149C163.282 116.389 163.255 118.717 163.389 120.027C163.603 122.355 164.512 124.093 164.914 124.842C166.626 127.999 168.284 130.968 169.969 133.83C170.183 135.756 170.558 138.378 171.307 141.427C172.618 146.777 174.303 150.415 176.63 155.417C180.322 163.309 182.515 167.83 187.196 172.645C188.962 174.437 190.567 175.774 191.664 176.63C192.065 176.175 194.526 173.34 194.044 169.301C193.67 166.011 191.583 164.004 190.995 163.469C189.711 162.399 187.758 160.661 185.752 158.2C181.525 152.957 179.76 147.713 177.192 139.849C176.496 137.709 175.56 134.686 174.624 130.968C175.132 129.31 175.56 127.999 175.854 127.169C176.737 124.628 177.299 123.344 176.898 121.713C176.791 121.285 176.577 120.482 176.042 120.321C175.426 120.161 174.49 120.91 173.768 122.274C173.367 120.081 173.179 118.262 173.099 116.898C172.992 114.918 173.046 113.473 172.618 113.366C172.163 113.259 171.467 114.865 171.387 115.025C170.718 116.523 170.718 117.941 170.825 118.824C171.039 113.848 170.478 112.591 169.862 112.43C169.354 112.296 168.712 112.965 168.525 113.179C167.268 114.517 167.91 116.469 167.963 116.603C167.401 113.634 166.813 113.447 166.626 113.447C166.144 113.42 165.663 114.49 165.475 115.105C165.261 115.854 165.395 116.523 165.475 116.871C165.047 116.469 164.539 116.042 164.138 116.149Z" fill="white"/>
<path d="M174.383 129.738C174.463 133.162 175.453 136.479 176.47 139.742C177.486 142.979 178.636 146.162 180.054 149.238C182.702 154.99 186.287 160.313 191.075 164.459C191.476 164.807 192.038 164.218 191.637 163.897C187.009 159.885 183.532 154.802 180.937 149.265C179.519 146.269 178.369 143.139 177.379 139.983C176.309 136.639 175.239 133.242 175.159 129.711C175.159 129.229 174.356 129.229 174.383 129.738Z" fill="#161616"/>
<path d="M169.782 134.419C170.478 142.872 174.009 150.817 177.647 158.387C181.017 165.422 185.163 172.27 191.369 177.139C191.771 177.46 192.332 176.898 191.931 176.577C185.859 171.842 181.846 165.208 178.503 158.387C174.838 150.843 171.253 142.872 170.558 134.446C170.531 133.911 169.729 133.911 169.782 134.419Z" fill="#161616"/>
<path d="M175.212 129.738C176.336 127.223 177.754 123.826 176.978 121.017C176.791 120.322 176.443 119.76 175.64 120.081C174.597 120.482 174.704 121.953 173.768 122.488C173.313 122.756 173.714 123.451 174.169 123.184C174.597 122.943 174.838 122.622 175.079 122.194C175.186 121.98 175.293 121.499 175.48 121.338C176.523 120.562 176.336 122.248 176.336 122.729C176.283 124.976 175.4 127.33 174.49 129.363C174.303 129.791 174.998 130.192 175.212 129.738Z" fill="#161616"/>
<path d="M174.303 122.488C173.474 120.562 173.714 118.476 173.661 116.443C173.634 115.587 173.741 113.5 172.751 112.992C170.531 111.842 170.397 118.957 170.478 119.947C170.531 120.455 171.334 120.455 171.28 119.947C171.173 118.556 171.227 117.165 171.548 115.801C171.628 115.453 171.922 113.848 172.591 114.142C172.885 114.276 172.858 116.122 172.858 116.443C172.912 118.663 172.725 120.803 173.607 122.89C173.821 123.371 174.517 122.97 174.303 122.488Z" fill="#161616"/>
<path d="M171.2 119.76C170.906 117.887 170.959 115.988 170.692 114.142C170.611 113.474 170.264 111.949 169.327 111.922C168.364 111.895 167.936 113.821 167.803 114.517C167.508 116.042 167.401 117.834 167.829 119.332C167.963 119.813 168.739 119.626 168.605 119.118C168.284 118.048 168.364 116.817 168.445 115.694C168.498 115.025 168.605 114.33 168.846 113.688C169.247 112.671 169.408 112.457 169.782 113.688C170.076 114.677 169.943 115.828 170.023 116.844C170.103 117.887 170.237 118.931 170.424 119.974C170.504 120.482 171.28 120.268 171.2 119.76Z" fill="#161616"/>
<path d="M168.391 119.278C168.231 118.074 168.819 112.939 166.626 113.019C164.272 113.099 165.181 118.476 165.422 119.76C165.529 120.268 166.305 120.054 166.198 119.546C166.01 118.583 165.957 117.593 165.957 116.603C165.957 115.881 165.743 114.249 166.599 114.169C167.482 114.089 167.428 116.041 167.455 116.737C167.482 117.593 167.455 118.422 167.562 119.251C167.642 119.786 168.472 119.813 168.391 119.278Z" fill="#161616"/>
<path d="M165.636 116.924C165.743 115.935 164.646 115.079 163.763 115.694C162.453 116.603 162.934 119.519 163.175 120.803C163.603 123.184 164.673 125.377 165.823 127.517C167.134 130.005 168.498 132.466 169.809 134.927C170.05 135.382 170.745 134.98 170.504 134.526C168.98 131.69 167.401 128.881 165.93 126.019C165.208 124.601 164.539 123.13 164.165 121.552C163.951 120.723 163.817 119.867 163.79 118.984C163.79 118.663 163.79 118.342 163.817 117.994C163.817 117.647 163.87 117.299 163.951 116.978C163.977 116.576 164.298 116.55 164.86 116.898C164.78 117.433 165.582 117.433 165.636 116.924Z" fill="#161616"/>
<path opacity="0.09" d="M166.84 113.688C167.589 113.955 167.054 117.165 166.92 118.369C166.626 121.124 167.241 125.297 171.601 131.236C172.751 136.96 174.945 144.771 179.439 153.224C183.237 160.393 187.544 165.85 191.129 169.756C191.396 172.11 191.637 174.464 191.904 176.844C190.246 175.694 187.945 173.875 185.672 171.227C183.692 168.9 182.515 166.867 180.803 163.63C176.389 155.257 174.169 151.057 172.618 145.975C171.762 143.193 170.745 139.18 170.157 134.205C168.043 131.476 166.599 128.962 165.636 127.036C163.763 123.318 163.282 120.964 163.335 118.85C163.389 116.443 163.817 116.122 164.004 116.042C164.405 115.881 164.94 116.202 165.288 116.47C165.261 116.336 164.994 115.132 165.796 114.249C165.93 114.142 166.465 113.554 166.84 113.688Z" fill="#353535"/>
<path opacity="0.09" d="M164.7 123.237C164.967 123.104 166.599 125.404 167.776 127.33C170.531 131.851 171.655 135.89 171.949 136.88C173.714 143.006 175.988 148.195 180.562 158.547C181.953 161.677 184.067 166.225 187.036 171.601C186.18 170.799 184.949 169.595 183.639 168.017C182.488 166.653 178.717 162.025 174.784 151.405C173.26 147.259 171.467 141.668 170.183 134.793C169.274 133.242 168.017 131.022 166.679 128.24C166.091 126.982 164.406 123.398 164.7 123.237Z" fill="#353535"/>
<path d="M202.685 161.142C201.748 161.062 200.09 160.928 197.923 161.142C195.409 161.409 193.162 161.623 191.476 163.095C190.219 164.191 189.845 165.556 189.149 168.257C188.748 169.836 188.213 171.976 188.266 174.865C188.373 180.215 190.406 180.91 191.476 187.384C192.011 190.513 191.958 192.948 191.931 195.863C191.878 199.742 191.476 203.032 191.048 205.574C192.199 206.483 193.964 207.714 196.372 208.677C197.843 209.265 202.016 210.843 207.366 209.907C212.983 208.944 216.434 205.788 217.584 204.637C215.712 199.582 215.525 195.516 215.685 192.76C215.899 189.417 216.595 188.694 217.584 181.499C218.333 176.149 218.307 173.928 218.253 172.725C218.066 167.91 217.959 165.475 216.354 163.844C214.776 162.239 210.736 161.864 202.685 161.142Z" fill="white"/>
<path d="M201.347 160.955C199.368 160.821 197.388 160.928 195.435 161.276C193.777 161.57 192.065 161.865 190.968 163.229C188.962 165.69 188.106 169.087 187.945 172.19C187.544 180.108 191.476 187.331 192.814 194.981C192.894 195.489 193.67 195.275 193.59 194.767C192.386 187.866 189.069 181.419 188.748 174.357C188.614 171.12 189.096 167.803 190.754 164.968C191.316 164.005 191.931 163.068 193.028 162.667C193.777 162.4 194.606 162.239 195.382 162.079C197.335 161.704 199.341 161.624 201.32 161.731C201.855 161.784 201.855 160.982 201.347 160.955Z" fill="#161616"/>
<path d="M190.968 187.277C191.744 193.162 191.664 199.1 190.701 204.958C190.621 205.467 191.396 205.681 191.476 205.172C192.466 199.234 192.573 193.242 191.771 187.277C191.691 186.768 190.888 186.768 190.968 187.277Z" fill="#161616"/>
<path d="M204.638 161.677C208.222 161.463 212.636 161.891 215.685 164.031C217.531 165.342 217.611 167.535 217.798 169.595C217.986 171.441 218.066 173.286 217.932 175.159C217.397 182.462 214.455 189.39 214.481 196.773C214.481 197.281 215.284 197.281 215.284 196.773C215.257 188.454 219.056 180.616 218.788 172.27C218.681 169.087 218.788 164.994 215.739 163.121C212.556 161.169 208.302 160.66 204.638 160.874C204.103 160.901 204.103 161.704 204.638 161.677Z" fill="#161616"/>
<path d="M215.311 188.748C215.257 193.991 215.899 199.181 217.183 204.263C217.317 204.771 218.093 204.557 217.959 204.049C216.702 199.047 216.06 193.911 216.113 188.748C216.113 188.24 215.311 188.24 215.311 188.748Z" fill="#161616"/>
<path d="M190.754 205.707C194.392 208.73 199.02 210.549 203.781 210.576C209.158 210.603 213.652 207.981 217.798 204.798C218.2 204.477 217.798 203.781 217.397 204.102C213.465 207.098 209.265 209.666 204.209 209.747C199.528 209.827 194.927 208.088 191.343 205.119C190.915 204.798 190.353 205.36 190.754 205.707Z" fill="#161616"/>
<path opacity="0.11" d="M211.004 161.49C211.833 163.496 212.903 166.519 213.438 170.29C214.481 177.861 212.716 183.665 210.603 190.38C209.024 195.382 206.376 202.283 201.722 210.014C203.193 210.148 205.012 210.148 207.045 209.773C212.341 208.81 215.872 205.921 217.451 204.45C217.263 203.113 216.942 201.026 216.488 198.512C215.765 194.579 215.525 194.285 215.444 192.867C215.337 191.129 215.632 191.343 217.21 183.986C217.825 181.097 218.28 178.476 218.547 175.052C218.574 174.758 218.574 174.463 218.601 174.169C218.735 169.755 218.788 167.054 216.916 164.753C215.123 162.56 212.529 161.784 211.004 161.49Z" fill="#353535"/>
<path opacity="0.08" d="M218.735 174.303C218.547 174.249 217.611 175.721 215.418 181.579C213.01 188.026 210.041 197.308 207.74 209.319C208.917 209.158 210.549 208.81 212.341 208.008C214.749 206.911 216.354 205.44 217.263 204.45C216.461 201.641 215.551 197.468 215.578 192.386C215.605 182.381 219.163 174.437 218.735 174.303Z" fill="#353535"/>
<path d="M193.028 141.668C191.985 143.808 192.279 145.975 192.52 146.991C192.413 146.991 191.155 146.938 190.487 147.847C189.684 148.917 190.433 150.255 190.567 150.469C190.754 150.79 190.995 151.244 191.503 151.378C192.306 151.619 193.055 150.923 193.108 150.87C193.51 151.886 194.178 153.17 195.221 154.481C196.826 156.514 198.619 157.718 199.823 158.387C199.876 159.671 199.93 160.928 199.956 162.212C200.251 162.479 200.866 162.961 201.775 163.121C203.568 163.469 204.958 162.292 205.119 162.132C205.092 160.527 205.066 158.922 205.039 157.317C205.734 156.782 206.537 156.033 207.313 155.043C208.864 153.01 209.426 150.95 209.64 149.72C209.934 149.827 210.416 149.934 211.031 149.934C211.619 149.934 212.368 149.907 212.716 149.425C213.091 148.89 212.689 148.115 212.288 147.285C211.887 146.51 211.592 146.403 211.485 146.376C211.031 146.242 210.603 146.51 210.469 146.59C210.576 145.734 210.63 144.129 209.961 142.337C209.774 141.828 208.704 139.1 206.109 137.655C201.856 135.355 195.168 137.308 193.028 141.668Z" fill="white"/>
<path d="M192.547 141.721C190.968 148.65 193.536 157.584 201.401 159.082C201.909 159.189 202.123 158.413 201.615 158.306C194.178 156.889 191.851 148.462 193.322 141.935C193.429 141.427 192.654 141.213 192.547 141.721Z" fill="#161616"/>
<path d="M201.508 159.055C202.604 159.376 204.102 158.333 204.985 157.745C206.162 156.969 207.205 155.979 208.035 154.829C210.094 152.074 210.87 148.596 210.549 145.226C210.496 144.717 209.693 144.717 209.747 145.226C210.041 148.141 209.506 151.111 207.928 153.598C207.259 154.642 206.43 155.578 205.467 156.38C204.691 157.022 202.792 158.574 201.722 158.28C201.213 158.146 200.999 158.922 201.508 159.055Z" fill="#161616"/>
<path d="M199.154 158.413C199.555 159.51 199.662 160.66 199.475 161.811C199.395 162.319 200.17 162.533 200.251 162.025C200.465 160.714 200.384 159.457 199.93 158.199C199.769 157.718 198.993 157.905 199.154 158.413Z" fill="#161616"/>
<path d="M204.691 157.504C204.557 158.868 204.664 160.206 205.012 161.543C205.146 162.052 205.921 161.838 205.788 161.329C205.467 160.072 205.386 158.788 205.493 157.504C205.547 156.996 204.744 156.996 204.691 157.504Z" fill="#161616"/>
<path d="M199.501 162.319C201.347 164.379 205.199 164.325 205.868 161.195C205.975 160.687 205.199 160.473 205.092 160.981C204.53 163.523 201.534 163.362 200.063 161.757C199.715 161.383 199.154 161.944 199.501 162.319Z" fill="#161616"/>
<path d="M199.662 158.948C201.214 160.366 203.648 160.045 204.638 158.146C204.878 157.691 204.183 157.29 203.942 157.745C203.193 159.162 201.401 159.483 200.224 158.387C199.849 158.039 199.288 158.601 199.662 158.948Z" fill="#161616"/>
<path d="M201.267 159.537C201.641 159.51 201.989 159.537 202.337 159.644C202.845 159.778 203.059 159.002 202.551 158.868C202.123 158.761 201.695 158.708 201.267 158.734C200.759 158.761 200.759 159.564 201.267 159.537Z" fill="#161616"/>
<path d="M192.627 150.95C191.53 151.833 190.567 150.602 190.46 149.559C190.326 148.543 191.209 147.285 192.333 147.981C192.761 148.248 193.162 147.553 192.734 147.285C191.075 146.242 189.47 148.008 189.658 149.666C189.872 151.432 191.61 152.796 193.189 151.512C193.59 151.191 193.028 150.629 192.627 150.95Z" fill="#161616"/>
<path d="M210.683 147.045C211.539 146.242 212.368 147.767 212.341 148.462C212.341 148.89 212.127 149.318 211.753 149.559C211.459 149.746 210.763 149.987 210.523 149.613C210.255 149.185 209.56 149.586 209.827 150.014C210.228 150.683 211.138 150.709 211.806 150.442C212.582 150.121 213.091 149.399 213.117 148.569C213.198 147.098 211.512 145.145 210.095 146.483C209.747 146.831 210.308 147.419 210.683 147.045Z" fill="#161616"/>
<path d="M199.929 141.641C200.143 143.514 200.036 145.279 199.849 147.152C199.742 148.409 200.411 148.944 201.401 149.746C201.802 150.067 202.364 149.506 201.962 149.185C201.267 148.596 200.652 148.195 200.678 147.125C200.678 146.617 200.812 146.055 200.866 145.547C200.973 144.236 200.919 142.925 200.759 141.641C200.678 141.133 199.876 141.133 199.929 141.641Z" fill="#161616"/>
<path d="M195.462 145.44C195.435 144.851 196.291 144.477 196.773 144.503C197.335 144.503 197.629 144.958 197.923 145.386C198.217 145.814 198.913 145.413 198.619 144.985C198.084 144.209 197.468 143.567 196.452 143.728C195.596 143.888 194.606 144.503 194.633 145.466C194.66 145.975 195.462 145.975 195.462 145.44Z" fill="#161616"/>
<path d="M204.637 144.717C205.36 143.353 207.312 143.567 207.66 145.092C207.767 145.6 208.543 145.386 208.436 144.878C207.954 142.684 204.985 142.337 203.942 144.289C203.728 144.744 204.397 145.172 204.637 144.717Z" fill="#161616"/>
<path d="M194.686 142.604C195.141 141.909 195.917 141.454 196.746 141.347C197.254 141.293 197.254 140.491 196.746 140.544C195.596 140.678 194.633 141.24 193.991 142.203C193.697 142.631 194.392 143.032 194.686 142.604Z" fill="#161616"/>
<path d="M204.637 141.106C205.6 141.053 206.483 141.347 207.179 141.989C207.553 142.337 208.142 141.775 207.74 141.427C206.884 140.652 205.788 140.25 204.611 140.304C204.102 140.33 204.102 141.133 204.637 141.106Z" fill="#161616"/>
<path d="M195.676 147.499C195.676 147.473 195.676 147.473 195.676 147.446C195.676 147.232 195.489 147.045 195.275 147.045C195.061 147.045 194.874 147.232 194.874 147.446C194.874 147.473 194.874 147.473 194.874 147.499C194.874 147.713 195.061 147.901 195.275 147.901C195.489 147.901 195.676 147.74 195.676 147.499Z" fill="#161616"/>
<path d="M196.907 147.312C196.933 147.312 196.96 147.312 196.96 147.312C197.174 147.312 197.361 147.125 197.361 146.911C197.361 146.697 197.174 146.51 196.96 146.51C196.933 146.51 196.907 146.51 196.907 146.51C196.693 146.51 196.505 146.697 196.505 146.911C196.532 147.125 196.693 147.312 196.907 147.312Z" fill="#161616"/>
<path d="M196.853 149.078C196.88 149.078 196.907 149.078 196.907 149.078C197.121 149.078 197.308 148.89 197.308 148.676C197.308 148.462 197.121 148.275 196.907 148.275C196.88 148.275 196.853 148.275 196.853 148.275C196.639 148.275 196.452 148.462 196.452 148.676C196.452 148.89 196.639 149.078 196.853 149.078Z" fill="#161616"/>
<path d="M205.52 146.724C205.547 146.724 205.574 146.724 205.574 146.724C205.788 146.724 205.975 146.536 205.975 146.322C205.975 146.108 205.788 145.921 205.574 145.921C205.547 145.921 205.52 145.921 205.52 145.921C205.306 145.921 205.119 146.108 205.119 146.322C205.146 146.536 205.306 146.724 205.52 146.724Z" fill="#161616"/>
<path d="M207.874 146.67C208.383 146.67 208.383 145.868 207.874 145.868C207.366 145.868 207.366 146.67 207.874 146.67Z" fill="#161616"/>
<path d="M206.991 147.954C207.5 147.954 207.5 147.152 206.991 147.152C206.456 147.152 206.456 147.954 206.991 147.954Z" fill="#161616"/>
<path d="M198.137 151.458C199.769 154.401 204.049 153.973 205.092 150.79C205.253 150.308 204.477 150.094 204.316 150.576C203.487 153.144 200.117 153.358 198.833 151.057C198.592 150.602 197.896 151.004 198.137 151.458Z" fill="#161616"/>
<path d="M188.588 144.905C187.598 146.376 186.181 148.917 185.619 152.314C185.218 154.749 184.522 159.002 187.197 162.372C187.919 163.282 190.568 166.251 194.206 165.77C196.64 165.449 199.235 163.63 199.716 161.088C199.957 159.911 199.689 158.895 199.449 158.306C198.298 157.745 196.239 156.568 194.634 154.267C193.831 153.144 193.35 152.047 193.082 151.191C192.948 151.298 192.52 151.619 191.932 151.592C191.236 151.565 190.808 151.084 190.701 150.95C189.872 150.014 189.952 148.088 191.049 147.446C191.611 147.125 192.253 147.232 192.601 147.312C192.44 146.322 192.28 144.209 193.403 141.989C194.152 140.491 195.302 139.394 197.951 137.736C200.144 136.371 201.107 136.478 201.455 136.532C202.632 136.746 203.354 137.682 203.729 138.164C205.414 140.304 207.607 143.059 210.229 146.456C210.336 146.403 211.058 146.055 211.78 146.376C212.289 146.617 212.529 147.071 212.69 147.419C212.824 147.713 213.038 148.141 212.931 148.65C212.824 149.292 212.315 149.88 211.62 150.094C210.764 150.362 210.068 149.907 209.961 149.827C209.747 150.843 209.319 152.368 208.303 154C207.26 155.658 206.056 156.755 205.227 157.397C205.12 158.039 204.986 159.216 205.494 160.553C206.297 162.747 208.383 164.138 210.309 164.566C213.92 165.342 216.836 162.64 217.585 161.918C220.153 159.51 221.705 155.471 220.394 151.592C219.404 148.703 217.211 147.125 216.355 146.563C215.311 144.156 214.241 142.283 213.385 140.946C210.978 137.174 209.319 134.633 206.297 133.696C204.451 133.135 202.766 133.349 201.642 133.616C199.823 133.215 198.405 133.375 197.442 133.616C193.002 134.713 189.631 139.153 188.588 144.905Z" fill="#5222D0"/>
<path opacity="0.08" d="M206.938 141.935C206.724 142.016 207.152 143.407 207.366 144.798C207.393 144.985 207.848 148.436 206.564 151.726C205.119 155.417 202.123 157.397 200.812 158.146C201.642 158.333 202.497 158.52 203.327 158.734C203.567 160.179 203.782 161.65 204.022 163.095C204.557 162.453 205.119 161.811 205.654 161.169C205.895 161.623 206.323 162.292 206.991 162.907C207.205 163.121 208.757 164.512 211.058 164.7C213.626 164.94 215.525 163.549 216.595 162.774C217.317 162.265 219.457 160.66 220.447 157.584C221.517 154.24 220.474 151.432 220.153 150.656C219.805 151.993 219.083 154 217.531 155.952C217.157 156.434 213.786 160.634 211.7 159.911C209.907 159.296 209.292 155.07 210.175 149.532C210.228 149.586 210.656 150.094 211.271 150.067C212.047 150.041 212.395 149.265 212.449 149.185C212.823 148.382 212.368 147.499 211.914 147.018C211.325 146.376 210.522 146.269 210.282 146.269C209.934 145.921 209.426 145.386 208.891 144.691C207.607 143.112 207.125 141.882 206.938 141.935Z" fill="#353535"/>
<path opacity="0.09" d="M200.464 147.874C200.678 147.526 201.855 147.446 202.203 148.168C202.471 148.73 202.123 149.479 201.748 149.559C201.16 149.72 200.17 148.329 200.464 147.874Z" fill="#353535"/>
<path opacity="0.09" d="M194.285 159.189C193.724 160.152 192.6 161.035 191.477 160.928C190.808 160.874 190.059 160.473 187.464 156.327C186.608 154.963 185.939 153.786 185.485 153.01C185.244 153.893 184.923 155.471 185.19 157.37C185.297 158.119 185.565 159.403 186.287 160.794C186.742 161.677 187.812 163.63 190.086 164.86C190.754 165.235 191.931 165.85 193.51 165.85C196.158 165.823 197.87 164.058 198.218 163.683C198.833 163.068 199.716 162.132 199.849 160.66C199.983 159.243 199.314 158.146 199.154 157.932C198.351 156.701 197.495 156.835 196.131 155.658C194.392 154.16 193.911 152.314 193.697 152.395C193.376 152.582 195.81 156.568 194.285 159.189Z" fill="#353535"/>
<path opacity="0.13" d="M210.068 147.927C209.907 147.874 209.426 149.559 208.035 151.833C206.055 155.07 203.621 157.183 201.855 158.467C203.086 158.119 205.279 157.317 207.098 155.337C209.987 152.234 210.308 148.008 210.068 147.927Z" fill="#353535"/>
</svg>
